<svg width="313" height="45" viewBox="0 0 313 45" fill="none" xmlns="http://www.w3.org/2000/svg">
<g clip-path="url(#clip0_5101_536)">
<path d="M312.039 6.4751V39.4751H306.539V44.9751H6.375V39.4751H0.875V6.4751H6.375V0.975098H306.539V6.4751H312.039Z" fill="black"/>
<path d="M39.375 6.4751H33.875V33.9751H39.375V6.4751Z" fill="#FFB428"/>
<path d="M50.375 28.4751H61.375V33.9751H44.875V6.4751H61.375V11.9751H50.375V28.4751ZM61.375 28.4751H66.875V11.9751H61.375V28.4751Z" fill="white"/>
<path d="M77.875 28.4751H88.875V33.9751H72.375V6.4751H88.875V11.9751H77.875V28.4751ZM88.875 11.9751V28.4751H94.375V11.9751H88.875Z" fill="white"/>
<path d="M22.875 11.9751H28.375V33.9751H22.875V22.9751H11.875V33.9751H6.375V11.9751H11.875V17.4751H22.875V11.9751ZM22.875 6.4751H11.875V11.9751H22.875V6.4751Z" fill="#06FBFF"/>
<path d="M116.583 28.4751H127.583V33.9751H111.083V6.4751H127.583V11.9751H116.583V28.4751ZM127.583 11.9751V28.4751H133.083V11.9751H127.583ZM155.083 17.4751H144.083V11.9751H138.583V33.9751H144.083V22.9751H155.083V33.9751H160.583V11.9751H155.083V17.4751ZM155.083 11.9751H144.083V6.4751H155.083V11.9751ZM182.583 33.9751V17.4751H177.083V11.9751H171.583V6.4751H166.083V11.9751H171.583V17.4751H177.083V33.9751H182.583ZM188.083 17.4751V11.9751H182.583V17.4751H188.083ZM193.583 11.9751V6.4751H188.083V11.9751H193.583Z" fill="#FFB428"/>
<path d="M206.593 33.6161V28.4035L216.586 20.1356C217.245 19.5843 217.814 19.0659 218.294 18.5805C218.773 18.0951 219.141 17.5946 219.4 17.079C219.657 16.5634 219.786 15.9886 219.786 15.3534C219.786 14.67 219.639 14.0856 219.346 13.6003C219.052 13.1149 218.65 12.7409 218.142 12.4769C217.633 12.2129 217.042 12.0809 216.371 12.0809C215.7 12.0809 215.11 12.2156 214.6 12.4851C214.091 12.7546 213.695 13.1479 213.413 13.6621C213.131 14.1778 212.991 14.813 212.991 15.5679H206.088C206.088 13.6869 206.51 12.0685 207.356 10.7155C208.2 9.36113 209.397 8.31613 210.942 7.57913C212.488 6.84213 214.297 6.47363 216.371 6.47363C218.444 6.47363 220.373 6.81463 221.942 7.49801C223.512 8.18138 224.725 9.14251 225.582 10.3828C226.438 11.623 226.867 13.0764 226.867 14.7415C226.867 15.7728 226.654 16.793 226.229 17.8064C225.804 18.8198 225.04 19.9431 223.937 21.1765C222.834 22.4113 221.259 23.8729 219.21 25.5628L216.694 27.6473V27.8274H227.155V33.6148H206.593V33.6161Z" fill="url(#paint0_linear_5101_536)"/>
<path d="M241.715 33.9751C239.234 33.9751 237.114 33.4306 235.352 32.3388C233.591 31.2485 232.239 29.6823 231.299 27.6391C230.358 25.5958 229.888 23.1305 229.888 20.243C229.888 17.3555 230.358 14.8846 231.299 12.829C232.239 10.7747 233.591 9.20172 235.352 8.11135C237.114 7.02097 239.235 6.4751 241.715 6.4751C244.194 6.4751 246.318 7.02372 248.086 8.1196C249.853 9.21547 251.205 10.7885 252.14 12.8372C253.075 14.886 253.542 17.3555 253.542 20.243C253.542 23.1305 253.075 25.5958 252.14 27.6391C251.205 29.6823 249.857 31.2485 248.096 32.3388C246.335 33.4292 244.207 33.9751 241.715 33.9751ZM241.715 28.0791C242.637 28.0791 243.415 27.7793 244.051 27.1798C244.686 26.5803 245.169 25.6976 245.497 24.5288C245.827 23.3601 245.991 21.9315 245.991 20.2416C245.991 18.5517 245.826 17.1025 245.497 15.9282C245.167 14.754 244.686 13.8616 244.051 13.2497C243.415 12.6392 242.637 12.3326 241.715 12.3326C240.792 12.3326 240.027 12.6378 239.387 13.2497C238.746 13.8602 238.261 14.754 237.931 15.9282C237.601 17.1025 237.437 18.5407 237.437 20.2416C237.437 21.9425 237.599 23.3601 237.922 24.5288C238.245 25.6976 238.728 26.5803 239.369 27.1798C240.01 27.7793 240.792 28.0791 241.715 28.0791Z" fill="url(#paint1_linear_5101_536)"/>
<path d="M256.56 33.6163V28.4036L266.554 20.1358C267.213 19.5844 267.782 19.066 268.262 18.5806C268.74 18.0953 269.109 17.5948 269.367 17.0791C269.624 16.5635 269.754 15.9888 269.754 15.3535C269.754 14.6701 269.606 14.0858 269.314 13.6004C269.019 13.115 268.618 12.741 268.109 12.477C267.6 12.213 267.009 12.081 266.338 12.081C265.667 12.081 265.077 12.2158 264.567 12.4853C264.058 12.7548 263.662 13.148 263.38 13.6623C263.099 14.1779 262.958 14.8131 262.958 15.568H256.056C256.056 13.687 256.478 12.0686 257.324 10.7156C258.168 9.36125 259.364 8.31625 260.91 7.57925C262.455 6.84225 264.265 6.47375 266.338 6.47375C268.412 6.47375 270.341 6.81475 271.91 7.49813C273.48 8.1815 274.693 9.14263 275.549 10.3829C276.406 11.6231 276.835 13.0765 276.835 14.7416C276.835 15.7729 276.622 16.7931 276.197 17.8065C275.772 18.8199 275.007 19.9433 273.905 21.1766C272.802 22.4114 271.226 23.873 269.177 25.5629L266.661 27.6474V27.8275H277.122V33.6149H256.56V33.6163Z" fill="url(#paint2_linear_5101_536)"/>
<path d="M290.387 33.9751C288.326 33.9751 286.498 33.6135 284.905 32.8875C283.311 32.1629 282.058 31.1591 281.148 29.8763C280.238 28.5948 279.77 27.1208 279.746 25.4543H286.827C286.827 26.0648 286.989 26.5983 287.312 27.0534C287.635 27.5085 288.067 27.8591 288.606 28.1053C289.145 28.3514 289.739 28.4738 290.385 28.4738C291.128 28.4738 291.778 28.3156 292.335 27.998C292.892 27.6804 293.329 27.2335 293.647 26.6588C293.965 26.084 294.123 25.4061 294.123 24.6279C294.123 23.8496 293.963 23.1511 293.647 22.5695C293.329 21.9879 292.892 21.5396 292.335 21.222C291.778 20.9044 291.128 20.7463 290.385 20.7463C289.643 20.7463 288.896 20.9319 288.256 21.3031C287.615 21.6744 287.138 22.1845 286.827 22.8308L280.428 21.5726L281.47 6.83402H299.48V12.6571H287.437L286.934 18.5531H287.079C287.498 17.7378 288.223 17.0681 289.254 16.5401C290.284 16.0135 291.476 15.7495 292.83 15.7495C294.017 15.7495 295.115 15.9599 296.129 16.3793C297.141 16.7986 298.022 17.3954 298.772 18.1681C299.521 18.9409 300.101 19.858 300.515 20.9181C300.929 21.9783 301.135 23.1443 301.135 24.4134C301.135 26.282 300.691 27.9361 299.806 29.3744C298.919 30.8126 297.669 31.9388 296.059 32.7541C294.447 33.5695 292.557 33.9765 290.388 33.9765L290.387 33.9751Z" fill="url(#paint3_linear_5101_536)"/>
</g>
<defs>
<linearGradient id="paint0_linear_5101_536" x1="206.088" y1="20.2251" x2="301.135" y2="20.2251" gradientUnits="userSpaceOnUse">
<stop stop-color="#06FBFF" stop-opacity="0.980392"/>
<stop offset="1" stop-color="#FFB428"/>
</linearGradient>
<linearGradient id="paint1_linear_5101_536" x1="206.088" y1="20.2251" x2="301.135" y2="20.2251" gradientUnits="userSpaceOnUse">
<stop stop-color="#06FBFF" stop-opacity="0.980392"/>
<stop offset="1" stop-color="#FFB428"/>
</linearGradient>
<linearGradient id="paint2_linear_5101_536" x1="206.088" y1="20.2251" x2="301.135" y2="20.2251" gradientUnits="userSpaceOnUse">
<stop stop-color="#06FBFF" stop-opacity="0.980392"/>
<stop offset="1" stop-color="#FFB428"/>
</linearGradient>
<linearGradient id="paint3_linear_5101_536" x1="206.088" y1="20.2251" x2="301.135" y2="20.2251" gradientUnits="userSpaceOnUse">
<stop stop-color="#06FBFF" stop-opacity="0.980392"/>
<stop offset="1" stop-color="#FFB428"/>
</linearGradient>
<clipPath id="clip0_5101_536">
<rect width="311.164" height="44" fill="white" transform="translate(0.875 0.975098)"/>
</clipPath>
</defs>
</svg>
