<svg width="118" height="47" viewBox="0 0 118 47" fill="none" xmlns="http://www.w3.org/2000/svg">
<g clip-path="url(#clip0_5101_562)">
<path d="M113.979 4.26081V0.975098H3.26899V4.26081H0.124023V43.6894H3.26899V46.9751H59.0922V43.6894H62.2372V27.3914H62.2105V27.3898L113.742 27.3569V23.9751H117.124V4.26081H113.979Z" fill="black"/>
<path d="M22.1387 4.26074H18.9938V20.6893H22.1387V4.26074Z" fill="#FFB428"/>
<path d="M28.4287 17.4036H34.7186V20.6893H25.2837V4.26074H34.7186V7.54646H28.4287V17.4036ZM34.7186 17.4036H37.8636V7.54646H34.7186V17.4036Z" fill="white"/>
<path d="M44.1535 17.4036H50.4435V20.6893H41.0085V4.26074H50.4435V7.54646H44.1535V17.4036ZM50.4435 7.54646V17.4036H53.5884V7.54646H50.4435Z" fill="white"/>
<path d="M12.7038 7.54646H15.8488V20.6893H12.7038V14.1179H6.41389V20.6893H3.26892V7.54646H6.41389V10.8322H12.7038V7.54646ZM12.7038 4.26074H6.41389V7.54646H12.7038V4.26074Z" fill="#06FBFF"/>
<path d="M66.2871 17.4034H72.577V20.6892H63.1421V4.26059H72.577V7.5463H66.2871V17.4034ZM72.577 7.5463V17.4034H75.722V7.5463H72.577ZM88.3019 7.5463H91.4468V20.6892H88.3019V14.1177H82.0119V20.6892H78.8669V7.5463H82.0119V10.832H88.3019V7.5463ZM88.3019 4.26059H82.0119V7.5463H88.3019V4.26059ZM100.882 20.6892V10.832H97.7368V7.5463H94.5918V4.26059H97.7368V7.5463H100.882V10.832H104.027V20.6892H100.882ZM104.027 10.8312V7.54548H107.172V10.8312H104.027ZM107.172 7.54548V4.25977H110.317V7.54548H107.172Z" fill="#FFB428"/>
<path d="M3.70054 40.1891V37.0751L9.41495 32.1358C9.79156 31.8064 10.1171 31.4968 10.3915 31.2068C10.6651 30.9168 10.8758 30.6178 11.0236 30.3098C11.1706 30.0018 11.2445 29.6584 11.2445 29.2789C11.2445 28.8707 11.1604 28.5216 10.9929 28.2316C10.8247 27.9416 10.5951 27.7182 10.3042 27.5605C10.0133 27.4028 9.6752 27.3239 9.29151 27.3239C8.90782 27.3239 8.57053 27.4044 8.27883 27.5654C7.98792 27.7264 7.76148 27.9613 7.6003 28.2685C7.43912 28.5766 7.35893 28.9561 7.35893 29.4071H3.41199C3.41199 28.2833 3.65336 27.3165 4.1369 26.5082C4.61966 25.6991 5.30369 25.0748 6.18742 24.6346C7.07116 24.1943 8.10586 23.9741 9.29151 23.9741C10.4772 23.9741 11.5803 24.1778 12.4774 24.5861C13.3753 24.9943 14.0687 25.5685 14.5585 26.3094C15.0484 27.0504 15.2937 27.9186 15.2937 28.9134C15.2937 29.5294 15.1718 30.1389 14.9289 30.7443C14.6859 31.3497 14.2488 32.0208 13.6182 32.7577C12.9876 33.4953 12.0866 34.3685 10.9151 35.378L9.47628 36.6233V36.7309H15.458V40.1883L3.70054 40.1891Z" fill="url(#paint0_linear_5101_562)"/>
<path d="M23.7836 40.4037C22.3652 40.4037 21.1528 40.0784 20.1456 39.4262C19.1385 38.7748 18.3656 37.8392 17.8278 36.6185C17.29 35.3979 17.0211 33.925 17.0211 32.2C17.0211 30.475 17.29 28.9989 17.8278 27.7709C18.3656 26.5437 19.1385 25.604 20.1456 24.9526C21.1528 24.3012 22.366 23.9751 23.7836 23.9751C25.2012 23.9751 26.4159 24.3028 27.427 24.9575C28.4373 25.6122 29.2102 26.5519 29.7449 27.7758C30.2795 28.9998 30.5468 30.475 30.5468 32.2C30.5468 33.925 30.2795 35.3979 29.7449 36.6185C29.2102 37.8392 28.4397 38.7748 27.4325 39.4262C26.4254 40.0775 25.209 40.4037 23.7836 40.4037ZM23.7836 36.8814C24.3111 36.8814 24.7562 36.7023 25.1194 36.3442C25.4826 35.986 25.7586 35.4587 25.9465 34.7604C26.1352 34.0622 26.2288 33.2088 26.2288 32.1992C26.2288 31.1897 26.1344 30.3239 25.9465 29.6224C25.7578 28.9209 25.4826 28.3878 25.1194 28.0223C24.7562 27.6575 24.3111 27.4744 23.7836 27.4744C23.256 27.4744 22.8189 27.6567 22.4525 28.0223C22.0861 28.387 21.8085 28.9209 21.6198 29.6224C21.4311 30.3239 21.3376 31.1831 21.3376 32.1992C21.3376 33.2153 21.4304 34.0622 21.6151 34.7604C21.7999 35.4587 22.0759 35.986 22.4422 36.3442C22.8086 36.7023 23.256 36.8814 23.7836 36.8814Z" fill="url(#paint1_linear_5101_562)"/>
<path d="M32.2726 40.1893V37.0753L37.9871 32.136C38.3637 31.8066 38.6892 31.4969 38.9636 31.207C39.2372 30.917 39.4479 30.618 39.5957 30.31C39.7427 30.0019 39.8166 29.6586 39.8166 29.2791C39.8166 28.8708 39.7325 28.5217 39.565 28.2318C39.3968 27.9418 39.1672 27.7184 38.8763 27.5607C38.5854 27.4029 38.2473 27.3241 37.8636 27.3241C37.4799 27.3241 37.1426 27.4046 36.8509 27.5656C36.56 27.7266 36.3336 27.9615 36.1724 28.2687C36.0112 28.5768 35.931 28.9563 35.931 29.4072H31.9841C31.9841 28.2835 32.2255 27.3167 32.709 26.5084C33.1918 25.6993 33.8758 25.075 34.7595 24.6347C35.6433 24.1944 36.678 23.9743 37.8636 23.9743C39.0493 23.9743 40.1524 24.178 41.0495 24.5863C41.9474 24.9945 42.6408 25.5687 43.1307 26.3096C43.6205 27.0505 43.8658 27.9188 43.8658 28.9135C43.8658 29.5296 43.7439 30.1391 43.501 30.7445C43.258 31.3499 42.8209 32.021 42.1903 32.7578C41.5597 33.4955 40.6587 34.3687 39.4872 35.3782L38.0484 36.6235V36.7311H44.0301V40.1885L32.2726 40.1893Z" fill="url(#paint2_linear_5101_562)"/>
<path d="M51.615 40.4037C50.4364 40.4037 49.3915 40.1877 48.4803 39.754C47.569 39.3211 46.8527 38.7214 46.3322 37.955C45.8117 37.1895 45.5444 36.3089 45.5303 35.3133H49.5794C49.5794 35.678 49.6722 35.9967 49.857 36.2686C50.0417 36.5405 50.2886 36.75 50.5968 36.897C50.905 37.0441 51.2447 37.1172 51.6142 37.1172C52.0388 37.1172 52.4107 37.0227 52.7291 36.833C53.0475 36.6432 53.2976 36.3762 53.4792 36.0329C53.6608 35.6895 53.7512 35.2846 53.7512 34.8196C53.7512 34.3547 53.66 33.9374 53.4792 33.59C53.2976 33.2425 53.0475 32.9747 52.7291 32.785C52.4107 32.5952 52.0388 32.5007 51.6142 32.5007C51.1896 32.5007 50.7627 32.6116 50.3963 32.8334C50.0299 33.0552 49.7571 33.36 49.5794 33.746L45.9202 32.9944L46.5162 24.1895H56.8144V27.6683H49.9285L49.6407 31.1906H49.7233C49.9631 30.7035 50.3775 30.3034 50.9671 29.988C51.556 29.6734 52.2377 29.5157 53.0122 29.5157C53.6907 29.5157 54.3189 29.6413 54.8983 29.8919C55.477 30.1424 55.981 30.4989 56.4095 30.9606C56.838 31.4222 57.1698 31.9701 57.4065 32.6034C57.6431 33.2367 57.7611 33.9333 57.7611 34.6915C57.7611 35.8078 57.5071 36.796 57.0008 37.6552C56.4936 38.5144 55.7789 39.1872 54.8583 39.6743C53.9368 40.1614 52.8557 40.4045 51.6158 40.4045L51.615 40.4037Z" fill="url(#paint3_linear_5101_562)"/>
</g>
<defs>
<linearGradient id="paint0_linear_5101_562" x1="3.41199" y1="32.1893" x2="57.7611" y2="32.1893" gradientUnits="userSpaceOnUse">
<stop stop-color="#06FBFF" stop-opacity="0.980392"/>
<stop offset="1" stop-color="#FFB428"/>
</linearGradient>
<linearGradient id="paint1_linear_5101_562" x1="3.41199" y1="32.1893" x2="57.7611" y2="32.1893" gradientUnits="userSpaceOnUse">
<stop stop-color="#06FBFF" stop-opacity="0.980392"/>
<stop offset="1" stop-color="#FFB428"/>
</linearGradient>
<linearGradient id="paint2_linear_5101_562" x1="3.41199" y1="32.1893" x2="57.7611" y2="32.1893" gradientUnits="userSpaceOnUse">
<stop stop-color="#06FBFF" stop-opacity="0.980392"/>
<stop offset="1" stop-color="#FFB428"/>
</linearGradient>
<linearGradient id="paint3_linear_5101_562" x1="3.41199" y1="32.1893" x2="57.7611" y2="32.1893" gradientUnits="userSpaceOnUse">
<stop stop-color="#06FBFF" stop-opacity="0.980392"/>
<stop offset="1" stop-color="#FFB428"/>
</linearGradient>
<clipPath id="clip0_5101_562">
<rect width="117" height="46" fill="white" transform="translate(0.124023 0.975098)"/>
</clipPath>
</defs>
</svg>
