<svg width="21" height="22" viewBox="0 0 21 22" fill="none" xmlns="http://www.w3.org/2000/svg">
<path d="M17.85 2.2H16.75V0H14.55V2.2H5.75V0H3.55V2.2H2.45C1.229 2.2 0.261 3.19 0.261 4.4L0.25 19.8C0.25 20.3835 0.481785 20.9431 0.894365 21.3556C1.30694 21.7682 1.86652 22 2.45 22H17.85C19.06 22 20.05 21.01 20.05 19.8V4.4C20.05 3.19 19.06 2.2 17.85 2.2ZM17.85 19.8H2.45V8.8H17.85V19.8ZM6.85 13.2H4.65V11H6.85V13.2ZM11.25 13.2H9.05V11H11.25V13.2ZM15.65 13.2H13.45V11H15.65V13.2ZM6.85 17.6H4.65V15.4H6.85V17.6ZM11.25 17.6H9.05V15.4H11.25V17.6ZM15.65 17.6H13.45V15.4H15.65V17.6Z" fill="#00DC82"/>
</svg>
