<svg width="44" height="44" viewBox="0 0 44 44" fill="none" xmlns="http://www.w3.org/2000/svg">
<path d="M1.85175 17.6616C0.945545 18.3236 0.761353 19.6015 1.4437 20.4925L1.66752 20.7848C2.21724 21.5026 2.21703 22.4999 1.66702 23.2175L1.4449 23.5073C0.761978 24.3983 0.945972 25.6767 1.85244 26.3389L2.14189 26.5504C2.87318 27.0846 3.1542 28.0436 2.8269 28.8881L2.6955 29.2271C2.28914 30.2756 2.82667 31.4528 3.88508 31.8325L4.21091 31.9493C5.06496 32.2557 5.6058 33.0986 5.52836 34.0026L5.4978 34.3594C5.4017 35.4814 6.25044 36.4615 7.37465 36.5267L7.71007 36.5462C8.61708 36.5988 9.37466 37.2562 9.5546 38.1467L9.62371 38.4887C9.84714 39.5945 10.9404 40.2968 12.039 40.0402L12.3577 39.9657C13.2449 39.7585 14.16 40.1771 14.5834 40.9838L14.7388 41.2798C15.2642 42.2808 16.5142 42.6477 17.4973 42.0894L17.7769 41.9307C18.5701 41.4802 19.5677 41.6236 20.202 42.2792L20.4291 42.514C21.2151 43.3266 22.518 43.3266 23.304 42.514L23.5311 42.2793C24.1654 41.6236 25.1629 41.4802 25.9562 41.9307L26.2358 42.0894C27.2189 42.6477 28.4689 42.2808 28.9943 41.2798L29.1497 40.9838C29.5731 40.1771 30.4882 39.7585 31.3754 39.9657L31.6941 40.0402C32.7927 40.2968 33.8859 39.5945 34.1094 38.4887L34.1785 38.1467C34.3584 37.2562 35.116 36.5988 36.023 36.5462L36.3584 36.5267C37.4826 36.4615 38.3314 35.4814 38.2353 34.3594L38.2047 34.0026C38.1273 33.0986 38.6681 32.2557 39.5222 31.9493L39.848 31.8325C40.9064 31.4528 41.4439 30.2756 41.0376 29.2271L40.9062 28.8881C40.5789 28.0436 40.8599 27.0846 41.5912 26.5504L41.8806 26.3389C42.7871 25.6767 42.9711 24.3983 42.2882 23.5073L42.0661 23.2175C41.5161 22.4999 41.5158 21.5026 42.0656 20.7848L42.2894 20.4925C42.9717 19.6015 42.7875 18.3236 41.8813 17.6616L41.5912 17.4496C40.8599 16.9154 40.5789 15.9564 40.9062 15.1119L41.0376 14.7729C41.4439 13.7244 40.9064 12.5472 39.848 12.1675L39.5222 12.0506C38.6681 11.7443 38.1273 10.9014 38.2047 9.9974L38.2352 9.64204C38.3313 8.51951 37.4817 7.53912 36.3569 7.47463L36.0242 7.45555C35.1166 7.40352 34.3583 6.74598 34.1783 5.85494L34.1091 5.51264C33.8858 4.40737 32.7934 3.70513 31.6951 3.96087L31.3741 4.03562C30.4875 4.24208 29.5733 3.82373 29.1499 3.01781L28.994 2.72092C28.4686 1.72073 27.2196 1.35395 26.2368 1.91126L25.9558 2.07062C25.1627 2.52039 24.1657 2.37678 23.5318 1.72144L23.304 1.48599C22.518 0.673397 21.2151 0.673397 20.4291 1.48599L20.2013 1.72144C19.5673 2.37678 18.5704 2.52039 17.7772 2.07062L17.4962 1.91126C16.5135 1.35395 15.2645 1.72073 14.7391 2.72092L14.5831 3.01781C14.1598 3.82373 13.2456 4.24208 12.359 4.03562L12.038 3.96087C10.9397 3.70514 9.84731 4.40737 9.62398 5.51264L9.55482 5.85494C9.37477 6.74598 8.61647 7.40352 7.70892 7.45555L7.37615 7.47463C6.25135 7.53912 5.40177 8.51951 5.49792 9.64204L5.52836 9.9974C5.6058 10.9014 5.06496 11.7443 4.21091 12.0506L3.88507 12.1675C2.82667 12.5472 2.28914 13.7244 2.6955 14.7729L2.8269 15.1119C3.1542 15.9564 2.87319 16.9154 2.14189 17.4496L1.85175 17.6616Z" fill="url(#paint0_linear_707_40828)"/>
<g clip-path="url(#clip0_707_40828)">
<path d="M24.2314 11.458L31.1141 26.2495L31.8214 14.9622L24.2314 11.458Z" fill="white"/>
<path d="M11.8535 14.9624L12.5635 26.2615L19.4662 11.4404L11.8535 14.9624Z" fill="white"/>
<path d="M24.574 23.7007L21.8555 17.084L19.123 23.7007H24.574Z" fill="white"/>
<path d="M17.6939 27.0244L16.6426 29.5937L21.8556 32.5605L27.0648 29.5937L25.9933 27.0244H17.6939Z" fill="white"/>
</g>
<defs>
<linearGradient id="paint0_linear_707_40828" x1="0.200071" y1="8.3666e-06" x2="43.3201" y2="44" gradientUnits="userSpaceOnUse">
<stop stop-color="#FF0021"/>
<stop offset="1" stop-color="#8600FF"/>
</linearGradient>
<clipPath id="clip0_707_40828">
<rect width="19.968" height="21.12" fill="white" transform="translate(11.8535 11.4404)"/>
</clipPath>
</defs>
</svg>
