<svg width="259" height="40" viewBox="0 0 259 40" fill="none" xmlns="http://www.w3.org/2000/svg">
<path d="M1.06618 16.7142C0.736649 16.955 0.66967 17.4197 0.917797 17.7437L2.3079 19.5589C2.50779 19.8199 2.50772 20.1825 2.30772 20.4435L0.918232 22.2563C0.669899 22.5803 0.736805 23.0451 1.06643 23.2859L2.90731 24.6308C3.17324 24.8251 3.27542 25.1738 3.15641 25.4809L2.32987 27.6134C2.18211 27.9947 2.37757 28.4228 2.76245 28.5608L4.90215 29.3283C5.21271 29.4397 5.40938 29.7462 5.38122 30.075L5.18609 32.353C5.15115 32.761 5.45978 33.1174 5.86858 33.1411L8.13249 33.2725C8.46231 33.2916 8.73779 33.5307 8.80322 33.8545L9.25527 36.0917C9.33652 36.4938 9.73407 36.7492 10.1335 36.6559L12.3398 36.1405C12.6625 36.0652 12.9952 36.2174 13.1492 36.5107L14.2067 38.5255C14.3978 38.8895 14.8523 39.0229 15.2098 38.82L17.1796 37.7014C17.4681 37.5376 17.8308 37.5897 18.0615 37.8281L19.6397 39.4596C19.9256 39.7551 20.3993 39.7551 20.6852 39.4596L22.2634 37.8281C22.494 37.5897 22.8568 37.5376 23.1453 37.7014L25.115 38.82C25.4725 39.0229 25.9271 38.8895 26.1181 38.5255L27.1757 36.5107C27.3296 36.2174 27.6624 36.0652 27.985 36.1405L30.1913 36.6559C30.5908 36.7492 30.9884 36.4938 31.0696 36.0917L31.5217 33.8545C31.5871 33.5307 31.8626 33.2916 32.1924 33.2725L34.4563 33.1411C34.8651 33.1174 35.1737 32.761 35.1388 32.353L34.9437 30.075C34.9155 29.7462 35.1122 29.4397 35.4227 29.3283L37.5624 28.5608C37.9473 28.4228 38.1428 27.9947 37.995 27.6134L37.1685 25.4809C37.0494 25.1738 37.1516 24.8251 37.4176 24.6308L39.2584 23.2859C39.5881 23.0451 39.655 22.5803 39.4066 22.2563L38.0172 20.4435C37.8172 20.1825 37.8171 19.8199 38.017 19.5589L39.4071 17.7437C39.6552 17.4197 39.5882 16.955 39.2587 16.7142L37.4176 15.3692C37.1516 15.1749 37.0494 14.8262 37.1685 14.5191L37.995 12.3866C38.1428 12.0053 37.9473 11.5772 37.5624 11.4392L35.4227 10.6717C35.1122 10.5603 34.9155 10.2538 34.9437 9.92504L35.1387 7.64749C35.1737 7.2393 34.8648 6.8828 34.4557 6.85935L32.1928 6.7296C31.8628 6.71068 31.587 6.47158 31.5216 6.14757L31.0695 3.91027C30.9883 3.50836 30.5911 3.253 30.1917 3.34599L27.9846 3.85995C27.6622 3.93503 27.3297 3.7829 27.1758 3.48984L26.118 1.4762C25.927 1.1125 25.4728 0.979124 25.1154 1.18178L23.1451 2.2991C22.8567 2.46265 22.4942 2.41043 22.2636 2.17212L20.6852 0.54036C20.3993 0.244872 19.9256 0.244872 19.6397 0.540359L18.0612 2.17212C17.8307 2.41043 17.4682 2.46265 17.1798 2.2991L15.2094 1.18178C14.8521 0.979124 14.3979 1.1125 14.2068 1.4762L13.1491 3.48984C12.9952 3.7829 12.6627 3.93503 12.3403 3.85995L10.1332 3.34599C9.73382 3.253 9.33658 3.50836 9.25537 3.91027L8.8033 6.14757C8.73783 6.47158 8.46209 6.71068 8.13206 6.7296L5.86913 6.85935C5.46011 6.8828 5.15117 7.2393 5.18614 7.64749L5.38122 9.92504C5.40938 10.2538 5.21271 10.5603 4.90215 10.6717L2.76244 11.4392C2.37757 11.5772 2.18211 12.0053 2.32987 12.3866L3.15641 14.5191C3.27542 14.8262 3.17324 15.1749 2.90731 15.3692L1.06618 16.7142Z" fill="url(#paint0_linear_864_14142)"/>
<g clip-path="url(#clip0_864_14142)">
<path d="M22.3125 10.416L28.5695 23.8628L29.2124 13.6016L22.3125 10.416Z" fill="white"/>
<path d="M11.0596 13.6022L11.705 23.8741L17.9802 10.4004L11.0596 13.6022Z" fill="white"/>
<path d="M22.6233 21.5465L20.152 15.5312L17.668 21.5465H22.6233Z" fill="white"/>
<path d="M16.3688 24.5674L15.4131 26.9031L20.1522 29.6002L24.8879 26.9031L23.9137 24.5674H16.3688Z" fill="white"/>
</g>
<path d="M142.641 15.6164C142.338 16.3351 142.188 17.2085 142.188 18.2324C142.188 19.2562 142.342 20.1713 142.645 20.8859C142.949 21.6005 143.378 22.1438 143.928 22.5073C144.478 22.8751 145.114 23.0548 145.834 23.0548C146.239 23.0548 146.615 23.0004 146.963 22.8876C147.311 22.7748 147.618 22.616 147.89 22.3987C148.161 22.1855 148.383 21.9223 148.565 21.6172C148.743 21.308 148.869 20.957 148.938 20.5642L151.997 20.5767C151.916 21.2537 151.721 21.9056 151.406 22.5366C151.09 23.1634 150.669 23.7234 150.143 24.2165C149.613 24.7096 148.986 25.0982 148.258 25.3866C147.529 25.6707 146.708 25.817 145.789 25.817C144.515 25.817 143.374 25.5203 142.37 24.9227C141.367 24.3251 140.574 23.4643 139.995 22.3318C139.416 21.1993 139.125 19.8329 139.125 18.2282C139.125 16.6235 139.416 15.2486 140.003 14.1162C140.59 12.9879 141.387 12.1229 142.39 11.5295C143.394 10.9361 144.527 10.6394 145.785 10.6394C146.615 10.6394 147.384 10.7606 148.092 10.9987C148.8 11.2369 149.431 11.588 149.982 12.0476C150.532 12.5073 150.977 13.0673 151.325 13.7317C151.673 14.3962 151.895 15.1567 151.993 16.0092H148.933C148.877 15.5997 148.764 15.2361 148.59 14.9143C148.416 14.5967 148.197 14.3209 147.926 14.0953C147.655 13.8696 147.343 13.6983 146.995 13.5771C146.643 13.4559 146.263 13.3974 145.854 13.3974C145.114 13.3974 144.47 13.5855 143.92 13.9616C143.37 14.3377 142.945 14.8893 142.641 15.608V15.6164ZM163.537 17.547C163.792 18.2532 163.921 19.0765 163.921 20.0167V20.8609H156.618V20.8692C156.618 21.4166 156.715 21.893 156.913 22.29C157.111 22.687 157.39 22.9962 157.755 23.2135C158.119 23.4308 158.548 23.5395 159.045 23.5395C159.377 23.5395 159.677 23.4935 159.952 23.3974C160.227 23.3013 160.462 23.155 160.656 22.9628C160.85 22.7706 161 22.5366 161.101 22.2566L163.853 22.4446C163.715 23.1258 163.428 23.7234 162.999 24.229C162.57 24.7347 162.016 25.1316 161.336 25.4116C160.66 25.6916 159.879 25.8337 158.993 25.8337C157.888 25.8337 156.941 25.6039 156.148 25.1358C155.355 24.672 154.744 24.0117 154.315 23.1592C153.886 22.3067 153.672 21.2955 153.672 20.1254C153.672 18.9553 153.886 17.9858 154.315 17.125C154.744 16.2641 155.347 15.5955 156.128 15.1149C156.909 14.6344 157.823 14.392 158.876 14.392C159.584 14.392 160.243 14.509 160.854 14.743C161.465 14.977 162.003 15.328 162.461 15.7919C162.918 16.2599 163.278 16.845 163.533 17.547H163.537ZM161.121 18.9553C161.121 18.5123 161.028 18.1195 160.842 17.781C160.656 17.4384 160.397 17.1709 160.069 16.9787C159.741 16.7865 159.361 16.6862 158.928 16.6862C158.495 16.6862 158.078 16.7948 157.73 17.0079C157.382 17.2211 157.111 17.5094 156.917 17.8646C156.735 18.1947 156.642 18.5583 156.622 18.9553H161.121ZM171.436 14.3794C170.837 14.3794 170.303 14.555 169.845 14.9102C169.384 15.2654 169.056 15.7835 168.862 16.4731H168.749V14.5424H165.864V25.6206H168.838V19.3523C168.838 18.901 168.935 18.4998 169.133 18.1571C169.331 17.8103 169.603 17.5387 169.942 17.3464C170.286 17.15 170.675 17.0539 171.112 17.0539C171.318 17.0539 171.541 17.0706 171.788 17.1041C172.034 17.1375 172.229 17.1751 172.366 17.2211V14.4965C172.237 14.463 172.083 14.4379 171.913 14.4171C171.739 14.3962 171.581 14.3878 171.432 14.3878L171.436 14.3794ZM179.549 23.2512C179.407 23.2762 179.269 23.2888 179.128 23.2888C178.929 23.2888 178.751 23.2595 178.602 23.1968C178.452 23.1342 178.335 23.0255 178.25 22.8667C178.165 22.7079 178.124 22.4906 178.124 22.2064V16.8408H180.143V14.5341H178.124V11.8805H175.15V14.5341H173.685V16.8408H175.15V22.6118C175.146 23.3389 175.292 23.9407 175.591 24.4129C175.891 24.8893 176.307 25.2403 176.846 25.466C177.384 25.6916 178.011 25.7919 178.727 25.7627C179.116 25.7501 179.443 25.7083 179.71 25.6456C179.982 25.5788 180.192 25.5245 180.338 25.4743L179.868 23.1885C179.795 23.201 179.686 23.2219 179.549 23.2512ZM182.078 25.6122H185.052V14.5382H182.078V25.6164V25.6122ZM183.571 10C183.134 10 182.757 10.1546 182.438 10.4597C182.118 10.7647 181.964 11.1325 181.964 11.5587C181.964 11.985 182.122 12.3527 182.438 12.6536C182.753 12.9545 183.13 13.1091 183.571 13.1091C184.012 13.1091 184.392 12.9586 184.704 12.6494C185.019 12.3443 185.177 11.9766 185.177 11.5504C185.177 11.1241 185.019 10.7564 184.704 10.4555C184.388 10.1546 184.012 10 183.571 10ZM191.316 12.9168C191.49 12.7079 191.793 12.6034 192.23 12.6034C192.408 12.6034 192.582 12.6201 192.752 12.6536C192.922 12.687 193.064 12.7246 193.181 12.7622L193.711 10.4555C193.525 10.397 193.242 10.3343 192.861 10.2591C192.481 10.188 192.064 10.1504 191.607 10.1504C190.931 10.1504 190.328 10.2842 189.798 10.5474C189.268 10.8107 188.851 11.2077 188.544 11.7384C188.24 12.2691 188.087 12.9336 188.087 13.7359V14.5382H186.569V16.845H188.087V25.6164H191.053V16.845H193.189V14.5382H191.053V13.7944C191.053 13.4183 191.138 13.1258 191.311 12.9168H191.316ZM195.01 25.6122H197.984V14.5382H195.01V25.6164V25.6122ZM196.503 10C196.066 10 195.69 10.1546 195.37 10.4597C195.05 10.7647 194.897 11.1325 194.897 11.5587C194.897 11.985 195.054 12.3527 195.37 12.6536C195.686 12.9545 196.062 13.1091 196.503 13.1091C196.944 13.1091 197.324 12.9586 197.636 12.6494C197.952 12.3443 198.109 11.9766 198.109 11.5504C198.109 11.1241 197.952 10.7564 197.636 10.4555C197.32 10.1546 196.944 10 196.503 10ZM204.033 17.1709C204.377 16.9118 204.778 16.7865 205.239 16.7865C205.785 16.7865 206.227 16.9578 206.562 17.2963C206.898 17.6348 207.109 18.0819 207.186 18.6335H209.994C209.953 17.7769 209.727 17.033 209.318 16.3978C208.909 15.7626 208.351 15.2695 207.651 14.9185C206.947 14.5675 206.129 14.392 205.191 14.392C204.106 14.392 203.172 14.6344 202.382 15.1149C201.593 15.5955 200.99 16.2683 200.562 17.1291C200.133 17.99 199.922 18.9845 199.922 20.117C199.922 21.2495 200.133 22.2273 200.553 23.0882C200.974 23.949 201.581 24.6218 202.37 25.1024C203.159 25.583 204.102 25.8253 205.203 25.8253C206.158 25.8253 206.983 25.6456 207.683 25.2863C208.383 24.9269 208.93 24.4254 209.326 23.7819C209.723 23.1383 209.945 22.3945 209.994 21.5504H207.186C207.129 21.939 207.012 22.2733 206.834 22.5491C206.655 22.8249 206.429 23.038 206.158 23.1801C205.887 23.3264 205.579 23.3974 205.239 23.3974C204.778 23.3974 204.377 23.2679 204.029 23.0088C203.681 22.7497 203.418 22.3736 203.228 21.8763C203.038 21.379 202.945 20.7815 202.945 20.071C202.945 19.3606 203.042 18.7798 203.232 18.2909C203.422 17.8019 203.689 17.4258 204.033 17.1709ZM220.64 16.4438C220.887 16.916 221.012 17.4843 221.012 18.1404V25.6122H218.192V24.0744H218.107C217.933 24.4212 217.702 24.7263 217.415 24.9854C217.128 25.2487 216.78 25.4534 216.375 25.5997C215.97 25.7459 215.501 25.8212 214.971 25.8212C214.287 25.8212 213.676 25.6958 213.142 25.4492C212.608 25.2027 212.183 24.8349 211.875 24.346C211.564 23.8571 211.41 23.247 211.41 22.5157C211.41 21.9014 211.519 21.3832 211.738 20.9653C211.956 20.5474 212.256 20.2089 212.632 19.954C213.008 19.6991 213.437 19.5069 213.919 19.3774C214.4 19.2478 214.906 19.1559 215.436 19.1016C216.059 19.0347 216.561 18.972 216.945 18.9093C217.33 18.8466 217.605 18.7589 217.775 18.6377C217.949 18.5165 218.034 18.341 218.034 18.1028V18.061C218.034 17.6055 217.896 17.2503 217.617 16.9996C217.342 16.7489 216.95 16.6235 216.44 16.6235C215.906 16.6235 215.477 16.7447 215.161 16.9871C214.845 17.2294 214.635 17.5345 214.534 17.898L211.782 17.6682C211.924 16.9954 212.195 16.4104 212.608 15.9173C213.016 15.4242 213.546 15.0439 214.198 14.7764C214.849 14.509 215.602 14.3753 216.456 14.3753C217.051 14.3753 217.621 14.4463 218.172 14.5926C218.718 14.7388 219.203 14.9603 219.632 15.2654C220.061 15.5704 220.393 15.9549 220.64 16.4313V16.4438ZM218.054 20.4806C217.961 20.5433 217.836 20.6018 217.674 20.6519C217.512 20.7021 217.334 20.748 217.132 20.7898C216.929 20.8316 216.731 20.865 216.533 20.8985C216.33 20.9319 216.152 20.957 215.986 20.982C215.638 21.0364 215.331 21.1199 215.072 21.2328C214.813 21.3456 214.611 21.5044 214.465 21.6966C214.319 21.893 214.247 22.1312 214.247 22.4196C214.247 22.8375 214.396 23.155 214.692 23.3765C214.987 23.598 215.363 23.7067 215.821 23.7067C216.278 23.7067 216.646 23.6147 216.982 23.435C217.318 23.2553 217.581 23.0088 217.771 22.7037C217.961 22.3987 218.058 22.0476 218.058 21.659V20.4848L218.054 20.4806ZM228.433 23.2512C228.292 23.2762 228.154 23.2888 228.012 23.2888C227.814 23.2888 227.636 23.2595 227.486 23.1968C227.337 23.1342 227.219 23.0255 227.134 22.8667C227.049 22.7079 227.009 22.4906 227.009 22.2064V16.8408H229.028V14.5341H227.009V11.8805H224.035V14.5341H222.57V16.8408H224.035V22.6118C224.031 23.3389 224.176 23.9407 224.476 24.4129C224.775 24.8893 225.192 25.2403 225.73 25.466C226.268 25.6916 226.896 25.7919 227.612 25.7627C228 25.7501 228.328 25.7083 228.595 25.6456C228.866 25.5788 229.077 25.5245 229.222 25.4743L228.753 23.1885C228.68 23.201 228.571 23.2219 228.433 23.2512ZM232.455 10C232.018 10 231.642 10.1546 231.322 10.4597C231.003 10.7647 230.849 11.1325 230.849 11.5587C230.849 11.985 231.007 12.3527 231.322 12.6536C231.638 12.9545 232.014 13.1091 232.455 13.1091C232.896 13.1091 233.277 12.9586 233.588 12.6494C233.904 12.3443 234.062 11.9766 234.062 11.5504C234.062 11.1241 233.904 10.7564 233.588 10.4555C233.273 10.1546 232.896 10 232.455 10ZM230.958 25.6122H233.932V14.5382H230.958V25.6164V25.6122ZM245.792 17.1166C246.221 17.9733 246.436 18.9762 246.436 20.1212C246.436 21.2662 246.221 22.2524 245.792 23.1091C245.363 23.9657 244.756 24.6344 243.967 25.1149C243.178 25.5913 242.24 25.8337 241.155 25.8337C240.071 25.8337 239.132 25.5955 238.343 25.1149C237.554 24.6344 236.943 23.9699 236.518 23.1091C236.089 22.2524 235.875 21.2537 235.875 20.1212C235.875 18.9887 236.089 17.9774 236.518 17.1166C236.947 16.2599 237.554 15.5913 238.343 15.1107C239.132 14.6302 240.071 14.392 241.155 14.392C242.24 14.392 243.178 14.6302 243.967 15.1107C244.756 15.5871 245.363 16.2558 245.792 17.1166ZM243.413 20.0961C243.413 19.4526 243.328 18.8759 243.158 18.3744C242.988 17.8688 242.737 17.4718 242.41 17.1751C242.078 16.8826 241.665 16.7363 241.175 16.7363C240.686 16.7363 240.261 16.8826 239.921 17.1751C239.581 17.4676 239.33 17.8688 239.16 18.3744C238.99 18.8801 238.905 19.4526 238.905 20.0961C238.905 20.7397 238.99 21.3163 239.16 21.8178C239.33 22.3193 239.585 22.7204 239.921 23.013C240.257 23.3055 240.678 23.4476 241.175 23.4476C241.673 23.4476 242.082 23.3013 242.41 23.013C242.741 22.7204 242.988 22.3235 243.158 21.8178C243.328 21.3122 243.413 20.7397 243.413 20.0961ZM257.806 16.3351C257.499 15.7125 257.07 15.2319 256.515 14.8976C255.961 14.5633 255.313 14.392 254.565 14.392C253.768 14.392 253.092 14.58 252.534 14.9603C251.975 15.3364 251.575 15.8462 251.34 16.4939H251.214V14.5382H248.378V25.6164H251.352V19.2102C251.356 18.7338 251.445 18.3285 251.615 17.9858C251.785 17.6473 252.024 17.3882 252.327 17.2085C252.631 17.033 252.983 16.9411 253.387 16.9411C253.982 16.9411 254.452 17.1333 254.792 17.5136C255.131 17.898 255.297 18.4246 255.293 19.1057V25.6122H258.267V18.5583C258.267 17.6975 258.114 16.9578 257.806 16.3351Z" fill="white"/>
<path d="M62.5753 10.8438L57.6387 25.6118H60.8798L61.94 22.2437H67.1032L68.1634 25.6118H71.4045L66.472 10.8438H62.5753ZM62.7088 19.8074L64.469 14.2161H64.5823L66.3384 19.8074H62.7088ZM82.4917 16.3348C82.7992 16.9574 82.953 17.6971 82.953 18.5579V25.6118H79.9789V19.1054C79.9829 18.4284 79.817 17.8977 79.4771 17.5132C79.1372 17.1329 78.6678 16.9407 78.073 16.9407C77.6724 16.9407 77.3204 17.0285 77.0129 17.2082C76.7094 17.3878 76.4706 17.6428 76.3007 17.9854C76.1307 18.3239 76.0417 18.7334 76.0377 19.2098V25.616H73.0636V14.5379H75.9001V16.4936H76.0255C76.2643 15.85 76.6608 15.3402 77.2192 14.9599C77.7776 14.5838 78.4534 14.3916 79.2505 14.3916C79.9951 14.3916 80.6465 14.5588 81.2009 14.8972C81.7552 15.2357 82.1842 15.7121 82.4917 16.3348ZM92.4175 16.3975H92.3042C92.1707 16.1008 91.9765 15.7957 91.7296 15.4865C91.4788 15.1772 91.155 14.9181 90.7504 14.7092C90.3458 14.5003 89.844 14.3958 89.2411 14.3958C88.4561 14.3958 87.7318 14.6047 87.0722 15.0226C86.4127 15.4405 85.8866 16.0715 85.4901 16.9115C85.0935 17.7514 84.8953 18.8003 84.8953 20.054C84.8953 21.3076 85.0895 22.2938 85.4779 23.092C85.8664 23.8943 86.3884 24.4877 87.0479 24.8722C87.7075 25.2608 88.4399 25.453 89.2451 25.453C89.8116 25.453 90.3013 25.3653 90.7099 25.1939C91.1186 25.0226 91.4545 24.797 91.7175 24.5212C91.9765 24.2453 92.1747 23.957 92.3042 23.6478H92.4297V25.6745C92.4297 26.4351 92.2192 26.9783 91.7984 27.3001C91.3776 27.626 90.8435 27.789 90.196 27.789C89.7631 27.789 89.3949 27.7305 89.0954 27.6135C88.796 27.4965 88.5532 27.3419 88.3711 27.1497C88.189 26.9574 88.0555 26.7485 87.9746 26.5312L85.223 26.9156C85.3444 27.4965 85.6074 28.023 86.0121 28.4869C86.4167 28.9549 86.963 29.3227 87.6509 29.5943C88.3387 29.8659 89.1642 29.9996 90.1273 29.9996C91.151 29.9996 92.0574 29.8408 92.8464 29.5191C93.6355 29.1973 94.2546 28.7209 94.6997 28.0857C95.1448 27.4505 95.3714 26.6607 95.3714 25.7205V14.5379H92.4175V16.3975ZM92.1747 21.7088C91.9967 22.1726 91.7377 22.5278 91.4059 22.7744C91.0741 23.0209 90.6654 23.1463 90.188 23.1463C89.7105 23.1463 89.2897 23.0209 88.9538 22.766C88.622 22.5153 88.3671 22.1559 88.1931 21.6921C88.0191 21.2282 87.9301 20.6766 87.9301 20.0372C87.9301 19.3979 88.015 18.8504 88.189 18.3699C88.359 17.8893 88.6139 17.5132 88.9498 17.2416C89.2856 16.97 89.6983 16.8321 90.1839 16.8321C90.6695 16.8321 91.0701 16.9658 91.4059 17.229C91.7418 17.4923 91.9967 17.8642 92.1747 18.3448C92.3528 18.8212 92.4418 19.3853 92.4418 20.0372C92.4418 20.6891 92.3528 21.2407 92.1747 21.7088ZM104.621 14.5379H107.596V25.616H104.739V23.6018H104.626C104.383 24.2495 103.982 24.7719 103.42 25.1689C102.857 25.5659 102.173 25.7623 101.368 25.7623C100.652 25.7623 100.021 25.5951 99.4745 25.2566C98.9282 24.9223 98.5033 24.4418 98.1998 23.8233C97.8964 23.2048 97.7385 22.461 97.7345 21.596V14.5379H100.709V21.0443C100.713 21.7004 100.883 22.2144 101.218 22.5947C101.554 22.975 102.003 23.163 102.566 23.163C102.926 23.163 103.258 23.0794 103.573 22.9081C103.885 22.7368 104.136 22.4819 104.33 22.1476C104.524 21.8133 104.617 21.3954 104.613 20.8981V14.5379H104.621ZM109.971 10.8438H112.945V25.616H109.971V10.8438ZM123.041 15.2775C122.616 14.9766 122.126 14.751 121.58 14.6047C121.034 14.4626 120.463 14.3874 119.864 14.3874C119.006 14.3874 118.254 14.5211 117.606 14.7886C116.959 15.056 116.429 15.4363 116.016 15.9294C115.607 16.4225 115.332 17.0076 115.191 17.6804L117.942 17.9102C118.043 17.5425 118.254 17.2416 118.569 16.9992C118.885 16.7568 119.31 16.6356 119.848 16.6356C120.354 16.6356 120.746 16.761 121.026 17.0117C121.301 17.2625 121.442 17.6135 121.442 18.0732V18.115C121.442 18.349 121.357 18.5287 121.183 18.6499C121.009 18.771 120.734 18.8588 120.354 18.9215C119.974 18.9842 119.468 19.0468 118.845 19.1137C118.315 19.168 117.809 19.26 117.327 19.3895C116.846 19.5191 116.417 19.7113 116.04 19.9662C115.664 20.2211 115.365 20.5596 115.146 20.9775C114.928 21.3954 114.818 21.9135 114.818 22.5278C114.818 23.2591 114.972 23.8693 115.284 24.3582C115.595 24.8471 116.016 25.2148 116.55 25.4614C117.084 25.7079 117.695 25.8333 118.379 25.8333C118.909 25.8333 119.379 25.7581 119.783 25.6118C120.188 25.4656 120.536 25.2608 120.823 24.9975C121.111 24.7343 121.341 24.4334 121.515 24.0865H121.6V25.6244H124.421V18.1526C124.421 17.4923 124.299 16.9282 124.048 16.456C123.801 15.9837 123.466 15.5951 123.041 15.2901V15.2775ZM121.467 21.6545C121.467 22.0431 121.37 22.3941 121.179 22.6992C120.989 23.0042 120.726 23.2508 120.39 23.4305C120.054 23.6102 119.67 23.7021 119.229 23.7021C118.788 23.7021 118.395 23.5934 118.1 23.372C117.805 23.1505 117.655 22.8329 117.655 22.415C117.655 22.1267 117.728 21.8843 117.873 21.6921C118.019 21.4957 118.221 21.341 118.48 21.2282C118.739 21.1154 119.047 21.0276 119.395 20.9775C119.557 20.9524 119.739 20.9273 119.941 20.8939C120.139 20.8647 120.342 20.827 120.54 20.7853C120.738 20.7435 120.92 20.6975 121.082 20.6474C121.244 20.5972 121.37 20.5387 121.463 20.476V21.6503L121.467 21.6545ZM133.242 14.4835V17.2082C133.104 17.1664 132.91 17.1246 132.663 17.0911C132.416 17.0577 132.19 17.041 131.987 17.041C131.55 17.041 131.162 17.1371 130.818 17.3335C130.474 17.5299 130.207 17.7974 130.009 18.1442C129.81 18.4911 129.713 18.8881 129.713 19.3394V25.6077H126.739V14.5379H129.624V16.4685H129.738C129.932 15.779 130.26 15.2608 130.721 14.9056C131.182 14.5504 131.712 14.3749 132.311 14.3749C132.461 14.3749 132.623 14.3832 132.793 14.4041C132.963 14.425 133.116 14.4501 133.246 14.4835H133.242Z" fill="url(#paint1_linear_864_14142)"/>
<defs>
<linearGradient id="paint0_linear_864_14142" x1="0.465674" y1="7.606e-06" x2="39.6657" y2="39.9999" gradientUnits="userSpaceOnUse">
<stop stop-color="#FF0021"/>
<stop offset="1" stop-color="#8600FF"/>
</linearGradient>
<linearGradient id="paint1_linear_864_14142" x1="130.764" y1="24.9996" x2="57.6387" y2="24.9996" gradientUnits="userSpaceOnUse">
<stop stop-color="#FF0021"/>
<stop offset="1" stop-color="#8600FF"/>
</linearGradient>
<clipPath id="clip0_864_14142">
<rect width="18.1527" height="19.2" fill="white" transform="translate(11.0596 10.4004)"/>
</clipPath>
</defs>
</svg>
