<svg width="123" height="31" viewBox="0 0 123 31" fill="none" xmlns="http://www.w3.org/2000/svg">
<path d="M0.254578 2.91553L15.2546 28.3503L30.2546 2.91553H24.2546L15.2546 18.1764L6.17958 2.91553H0.254578Z" fill="#3DD491"/>
<path d="M6.25647 2.91602L15.2611 18.2421L24.1912 2.91602H18.6843L15.2611 8.81067L11.7634 2.91602H6.25647Z" fill="#2C3D4F"/>
<g clip-path="url(#clip0_3612_2327)">
<path d="M62.8371 0.657715L72.6146 21.6677L73.6196 5.63522L62.8371 0.657715Z" fill="url(#paint0_linear_3612_2327)"/>
<path d="M45.2546 5.63531L46.2621 21.6853L56.0671 0.632812L45.2546 5.63531Z" fill="url(#paint1_linear_3612_2327)"/>
<path d="M63.3221 18.048L59.4596 8.64795L55.5771 18.048H63.3196H63.3221Z" fill="url(#paint2_linear_3612_2327)"/>
<path d="M53.5496 22.7676L52.0571 26.4176L59.4621 30.6326L66.8621 26.4176L65.3396 22.7676H53.5496Z" fill="url(#paint3_linear_3612_2327)"/>
</g>
<path fill-rule="evenodd" clip-rule="evenodd" d="M115.154 9.99631C119.448 11.2231 122.208 13.2678 122.208 15.6191L122.223 15.6337C122.223 17.9851 119.462 20.0298 115.168 21.2566C115.329 21.9284 115.475 22.571 115.577 23.199C116.132 26.7333 115.504 29.2162 113.81 30.1947C113.314 30.4868 112.744 30.6328 112.116 30.6328C110.626 30.6328 108.83 29.8149 106.873 28.223C106.391 27.8287 105.894 27.376 105.413 26.9086C104.931 27.376 104.434 27.8287 103.952 28.223C101.995 29.8149 100.199 30.6328 98.7089 30.6328C98.0809 30.6328 97.5114 30.4868 97.0148 30.1947C95.3206 29.2162 94.6926 26.7333 95.2622 23.199C95.3645 22.571 95.5105 21.9138 95.6712 21.2566C91.3774 20.0152 88.6171 17.9851 88.6171 15.6337C88.6171 13.2824 91.3774 11.2377 95.6712 10.0109C95.5105 9.3391 95.3645 8.69649 95.2622 8.06848C94.6926 4.53414 95.3206 2.05133 97.0148 1.07281C98.7089 0.079689 101.177 0.780717 103.952 3.04445C104.434 3.43878 104.931 3.89153 105.413 4.35888C105.894 3.89153 106.391 3.43878 106.873 3.04445C109.648 0.795321 112.116 0.0942937 113.81 1.07281C115.855 2.24119 116.235 5.6587 115.154 9.99631ZM112.087 2.08054C110.977 2.08054 109.473 2.81078 107.793 4.16902L107.778 4.18362C107.326 4.54874 106.873 4.97228 106.42 5.41042C107.384 6.44736 108.333 7.64495 109.254 8.93016C110.845 9.07621 112.35 9.30989 113.723 9.63119C114.672 5.86317 114.38 3.08827 113.065 2.32882C112.788 2.15356 112.452 2.08054 112.087 2.08054ZM108.465 20.8914C109.02 20.0736 109.56 19.1973 110.086 18.3064C110.626 17.3863 111.094 16.4954 111.517 15.6045C111.079 14.699 110.597 13.7935 110.086 12.9027C109.575 12.0118 109.02 11.1355 108.465 10.3176C107.486 10.2446 106.464 10.2008 105.413 10.2008C104.361 10.2008 103.339 10.2446 102.36 10.3176C101.805 11.1355 101.25 12.0118 100.739 12.9027C100.213 13.8081 99.7459 14.699 99.3077 15.6045C99.7459 16.51 100.213 17.4009 100.739 18.3064C101.25 19.1973 101.805 20.0736 102.36 20.8914C103.339 20.9645 104.361 21.0083 105.413 21.0083C106.464 21.0083 107.486 20.9645 108.465 20.8914ZM113.343 20.1758C113.051 19.2411 112.7 18.2918 112.291 17.3133C111.999 17.8829 111.693 18.4671 111.357 19.0366C111.021 19.6062 110.685 20.1612 110.334 20.7016C111.4 20.5701 112.408 20.3803 113.343 20.1758ZM103.455 22.4103C104.098 23.2574 104.755 24.0461 105.413 24.7617C106.07 24.0315 106.727 23.2574 107.37 22.4103C106.727 22.4396 106.084 22.4542 105.413 22.4542C104.741 22.4542 104.098 22.4396 103.455 22.4103ZM97.4821 20.1758C98.4169 20.3949 99.4246 20.5701 100.491 20.7016C100.14 20.1612 99.8043 19.6062 99.4684 19.0366C99.1325 18.4671 98.8258 17.8829 98.5337 17.3133C98.1248 18.2918 97.7742 19.2411 97.4821 20.1758ZM97.4821 11.0186C97.7742 11.9533 98.1248 12.9027 98.5337 13.8812C98.8258 13.297 99.1325 12.7274 99.4684 12.1578C99.8043 11.5882 100.14 11.0332 100.491 10.4929C99.4246 10.6243 98.4169 10.8142 97.4821 11.0186ZM107.37 8.78412C106.727 7.93704 106.07 7.14838 105.413 6.43275C104.755 7.16299 104.098 7.93704 103.455 8.78412C104.098 8.75491 104.741 8.7403 105.413 8.7403C106.084 8.7403 106.727 8.75491 107.37 8.78412ZM110.334 10.4929C110.685 11.0332 111.021 11.5882 111.357 12.1578C111.678 12.7274 111.999 13.3116 112.291 13.8812C112.715 12.888 113.065 11.9387 113.343 11.0186C112.408 10.7996 111.4 10.6243 110.334 10.4929ZM97.745 2.31421C96.6205 2.95682 96.2407 4.95767 96.6935 7.8056V7.8202C96.7811 8.38979 96.9126 9.00319 97.0732 9.61659C98.4461 9.29528 99.9504 9.06161 101.542 8.91556C102.448 7.61574 103.397 6.43275 104.376 5.38121C103.923 4.94307 103.47 4.51953 103.017 4.15441C101.352 2.78157 99.8481 2.06593 98.7236 2.06593C98.3584 2.06593 98.0225 2.15356 97.745 2.31421ZM96.0655 11.3984C92.3267 12.4645 90.0775 14.1002 90.0775 15.6191C90.0775 17.1526 92.3413 18.7738 96.0655 19.8399C96.489 18.4671 97.044 17.0504 97.7012 15.6191C97.044 14.1733 96.489 12.7566 96.0655 11.3984ZM97.745 28.8948C98.8696 29.5375 100.797 28.8656 103.032 27.0546L103.017 27.0693C103.47 26.7041 103.923 26.2806 104.376 25.8425C103.412 24.7909 102.462 23.5933 101.542 22.3081C99.9504 22.1621 98.4461 21.9284 97.0732 21.6071C97.0645 21.6436 97.0558 21.6801 97.0471 21.7166C96.91 22.2918 96.7759 22.8541 96.6935 23.4035C96.2407 26.2368 96.6205 28.2522 97.745 28.8948ZM113.08 28.8948C114.205 28.2522 114.584 26.2514 114.132 23.4035H114.117C114.029 22.8339 113.898 22.2205 113.737 21.6071C112.364 21.9284 110.86 22.1621 109.268 22.3081C108.363 23.5933 107.413 24.7763 106.435 25.8279C106.888 26.266 107.34 26.6895 107.793 27.0546C110.028 28.8656 111.955 29.5375 113.08 28.8948ZM113.124 15.6191C113.781 17.065 114.336 18.4817 114.76 19.8399C118.498 18.7738 120.748 17.1526 120.748 15.6191C120.748 14.0856 118.498 12.4645 114.76 11.3984C114.336 12.742 113.796 14.1587 113.124 15.6191ZM108.417 15.6412C108.417 17.2972 107.076 18.6397 105.422 18.6397C103.767 18.6397 102.426 17.2972 102.426 15.6412C102.426 13.9851 103.767 12.6426 105.422 12.6426C107.076 12.6426 108.417 13.9851 108.417 15.6412Z" fill="#61DAFB"/>
<defs>
<linearGradient id="paint0_linear_3612_2327" x1="66.4621" y1="0.345215" x2="75.2546" y2="17.9277" gradientUnits="userSpaceOnUse">
<stop stop-color="#F433B2"/>
<stop offset="1" stop-color="#CE34D6"/>
</linearGradient>
<linearGradient id="paint1_linear_3612_2327" x1="52.6721" y1="0.842813" x2="42.6246" y2="19.4703" gradientUnits="userSpaceOnUse">
<stop stop-color="#F93194"/>
<stop offset="0.57" stop-color="#F72165"/>
<stop offset="1" stop-color="#F82163"/>
</linearGradient>
<linearGradient id="paint2_linear_3612_2327" x1="59.4521" y1="9.17045" x2="59.4521" y2="18.418" gradientUnits="userSpaceOnUse">
<stop stop-color="#F62D92"/>
<stop offset="1" stop-color="#DD25AB"/>
</linearGradient>
<linearGradient id="paint3_linear_3612_2327" x1="59.4596" y1="22.3551" x2="59.4596" y2="31.0276" gradientUnits="userSpaceOnUse">
<stop stop-color="#BC23D6"/>
<stop offset="1" stop-color="#9112E7"/>
</linearGradient>
<clipPath id="clip0_3612_2327">
<rect width="28.3625" height="30" fill="white" transform="translate(45.2546 0.632812)"/>
</clipPath>
</defs>
</svg>
