<svg width="46" height="46" viewBox="0 0 46 46" fill="none" xmlns="http://www.w3.org/2000/svg">
<path d="M0.922203 19.2433C0.559723 19.5081 0.486046 20.0193 0.758987 20.3757L2.39716 22.5148C2.61704 22.8019 2.61696 23.2008 2.39696 23.4879L0.759464 25.6242C0.486298 25.9806 0.559895 26.492 0.922478 26.7569L3.09209 28.3419C3.38461 28.5556 3.49701 28.9392 3.36609 29.277L2.39201 31.7902C2.22947 32.2096 2.44448 32.6805 2.86784 32.8324L5.38995 33.737C5.73157 33.8596 5.9479 34.1967 5.91693 34.5583L5.68695 37.2432C5.64851 37.692 5.98801 38.084 6.43769 38.1101L9.10648 38.265C9.46929 38.286 9.77232 38.549 9.8443 38.9052L10.3771 41.5422C10.4665 41.9845 10.9038 42.2654 11.3432 42.1628L13.9443 41.5552C14.2992 41.4723 14.6653 41.6398 14.8347 41.9625L16.0814 44.3377C16.2915 44.738 16.7915 44.8848 17.1848 44.6615L19.5072 43.3427C19.8245 43.1625 20.2235 43.2198 20.4772 43.4821L22.338 45.4056C22.6524 45.7306 23.1735 45.7306 23.4879 45.4056L25.3487 43.4821C25.6024 43.2198 26.0014 43.1625 26.3187 43.3427L28.6411 44.6615C29.0344 44.8848 29.5344 44.738 29.7445 44.3377L30.9913 41.9625C31.1606 41.6398 31.5267 41.4723 31.8816 41.5552L34.4827 42.1628C34.9221 42.2654 35.3594 41.9845 35.4488 41.5422L35.9816 38.9052C36.0536 38.549 36.3566 38.286 36.7194 38.265L39.3882 38.1101C39.8379 38.084 40.1774 37.692 40.139 37.2432L39.909 34.5583C39.878 34.1967 40.0943 33.8596 40.436 33.737L42.9581 32.8324C43.3814 32.6805 43.5964 32.2096 43.4339 31.7902L42.4598 29.277C42.3289 28.9392 42.4413 28.5556 42.7338 28.3419L44.9034 26.7569C45.266 26.492 45.3396 25.9806 45.0664 25.6242L43.429 23.4879C43.2089 23.2009 43.2089 22.8019 43.4287 22.5148L45.0669 20.3757C45.3399 20.0193 45.2662 19.5081 44.9037 19.2433L42.7338 17.6581C42.4413 17.4444 42.3289 17.0608 42.4598 16.723L43.4339 14.2098C43.5964 13.7904 43.3814 13.3195 42.9581 13.1676L40.436 12.263C40.0943 12.1404 39.878 11.8033 39.909 11.4417L40.1389 8.75735C40.1774 8.30834 39.8375 7.91618 39.3876 7.89039L36.7199 7.73744C36.3569 7.71663 36.0535 7.45361 35.9815 7.0972L35.4487 4.46011C35.3593 4.018 34.9224 3.73711 34.4831 3.8394L31.881 4.44532C31.5264 4.5279 31.1607 4.36056 30.9914 4.03819L29.7444 1.66439C29.5343 1.26431 29.0347 1.1176 28.6416 1.34052L26.3185 2.65785C26.0013 2.83776 25.6025 2.78032 25.3489 2.51818L23.4879 0.594395C23.1735 0.269358 22.6524 0.269359 22.338 0.594395L20.477 2.51818C20.2234 2.78032 19.8246 2.83776 19.5074 2.65785L17.1843 1.34052C16.7912 1.1176 16.2916 1.26431 16.0815 1.66439L14.8345 4.03819C14.6652 4.36056 14.2995 4.5279 13.9449 4.44532L11.3428 3.8394C10.9035 3.73711 10.4666 4.018 10.3772 4.46011L9.84438 7.0972C9.77237 7.45361 9.46904 7.71663 9.10602 7.73744L6.43829 7.89039C5.98838 7.91618 5.64854 8.30834 5.687 8.75735L5.91693 11.4417C5.9479 11.8033 5.73157 12.1404 5.38995 12.263L2.86784 13.1676C2.44448 13.3195 2.22947 13.7904 2.39201 14.2098L3.36609 16.723C3.49701 17.0608 3.38461 17.4444 3.09209 17.6581L0.922203 19.2433Z" fill="#F7DF1E"/>
<path d="M24.8399 25.8488C25.5527 27.0127 26.4802 27.8683 28.1205 27.8683C29.4985 27.8683 30.3788 27.1796 30.3788 26.228C30.3788 25.0876 29.4743 24.6837 27.9576 24.0203L27.1262 23.6636C24.7264 22.6412 23.1321 21.3604 23.1321 18.6527C23.1321 16.1585 25.0325 14.2598 28.0025 14.2598C30.117 14.2598 31.6371 14.9957 32.7325 16.9225L30.1428 18.5853C29.5726 17.5629 28.9575 17.1601 28.0025 17.1601C27.0476 17.1601 26.4111 17.778 26.4111 18.5853C26.4111 19.583 27.029 19.9869 28.4559 20.6048L29.2873 20.9609C32.1129 22.1727 33.7083 23.408 33.7083 26.1853C33.7083 29.1794 31.3562 30.8198 28.1975 30.8198C25.0387 30.8198 23.1136 29.348 22.1373 27.4189L24.8399 25.8488ZM13.0919 26.137C13.6143 27.0639 14.0895 27.8475 15.2322 27.8475C16.3748 27.8475 17.014 27.42 17.014 25.7578V14.4496H20.3396V25.8027C20.3396 29.2463 18.3207 30.8136 15.3737 30.8136C12.711 30.8136 11.169 29.4356 10.3848 27.7756L13.0919 26.137Z" fill="#0B0C15"/>
</svg>
