<svg width="316" height="34" viewBox="0 0 316 34" fill="none" xmlns="http://www.w3.org/2000/svg">
<g clip-path="url(#clip0_5366_12438)">
<path d="M54.1874 33.805V0L0.46183 0V33.805H54.1874Z" fill="#FFEE04"/>
<path d="M61.3835 13.6858H65.0482V8.41283H70.2969V5.45859H65.0482V3.13794H70.8761V0.185577H61.3835V13.6858Z" fill="white"/>
<path d="M82.7512 7.21877C83.1804 6.55519 83.3941 5.73977 83.3941 4.77252C83.3941 3.80527 83.1861 2.99173 82.768 2.30753C82.35 1.62146 81.7652 1.09659 81.0135 0.732936C80.2618 0.367405 79.3845 0.185577 78.3835 0.185577H72.5557V13.6877H76.2204V9.232H77.4894L79.8607 13.6877H83.8421L81.0997 8.65277C81.7989 8.31723 82.35 7.8411 82.7512 7.22064V7.21877ZM76.2204 3.1117H77.5119C77.943 3.1117 78.3104 3.16981 78.616 3.28603C78.9215 3.40225 79.1558 3.5822 79.3208 3.82589C79.4858 4.06958 79.5682 4.38637 79.5682 4.77252C79.5682 5.15867 79.4858 5.46422 79.3208 5.70228C79.1558 5.94035 78.9197 6.1128 78.616 6.21965C78.3104 6.32837 77.943 6.38086 77.5119 6.38086H76.2204V3.1117Z" fill="white"/>
<path d="M95.1192 0.794795C94.1257 0.264307 93.0179 0 91.7976 0C90.5773 0 89.4563 0.264307 88.4647 0.794795C87.4731 1.32528 86.6877 2.10508 86.1047 3.13419C85.5217 4.16518 85.2312 5.43235 85.2312 6.93384C85.2312 8.43533 85.5217 9.69125 86.1047 10.7222C86.6877 11.7532 87.4731 12.5349 88.4647 13.0691C89.4563 13.6034 90.566 13.8696 91.7976 13.8696C93.0292 13.8696 94.1276 13.6052 95.1192 13.0748C96.1127 12.5443 96.9019 11.7645 97.4849 10.7354C98.0697 9.70438 98.3621 8.4372 98.3621 6.93384C98.3621 5.43048 98.0697 4.16518 97.4849 3.13419C96.9 2.10321 96.1109 1.32341 95.1192 0.794795ZM94.272 8.98269C94.0583 9.53942 93.7433 9.96118 93.3291 10.248C92.9148 10.5367 92.4031 10.6791 91.7976 10.6791C91.1921 10.6791 90.6804 10.5348 90.2642 10.248C89.85 9.96118 89.535 9.53754 89.3214 8.98269C89.1077 8.42596 89.0008 7.74551 89.0008 6.93571C89.0008 6.12592 89.1077 5.44547 89.3214 4.88874C89.535 4.33201 89.85 3.91024 90.2642 3.62344C90.6804 3.33664 91.1903 3.1923 91.7976 3.1923C92.4049 3.1923 92.9148 3.33664 93.3291 3.62344C93.7433 3.91024 94.0583 4.33388 94.272 4.88874C94.4856 5.44547 94.5925 6.1278 94.5925 6.93571C94.5925 7.74363 94.4856 8.42783 94.272 8.98269Z" fill="white"/>
<path d="M108.402 7.25251H108.297L103.496 0.185577H100.385V13.6858H104.049V6.59268H104.13L109.008 13.6858H112.067V0.185577H108.402V7.25251Z" fill="white"/>
<path d="M113.773 3.13794H117.835V13.6858H121.447V3.13794H125.507V0.185577H113.773V3.13794Z" fill="white"/>
<path d="M127.213 13.6858H136.917V10.7335H130.878V8.41283H136.443V5.45859H130.878V3.13794H136.943V0.185577H127.213V13.6858Z" fill="white"/>
<path d="M147.113 7.25251H147.008L142.209 0.185577H139.097V13.6858H142.762V6.59268H142.841L147.72 13.6858H150.779V0.185577H147.113V7.25251Z" fill="white"/>
<path d="M163.946 3.31227C163.395 2.30378 162.611 1.52961 161.599 0.99162C160.585 0.453633 159.385 0.183703 157.996 0.183703H152.854V13.6859H158.049C159.419 13.6859 160.609 13.4159 161.616 12.8779C162.622 12.3399 163.4 11.5658 163.95 10.5573C164.499 9.54879 164.774 8.3416 164.774 6.93384C164.774 5.52608 164.499 4.32076 163.946 3.3104V3.31227ZM160.709 9.13827C160.461 9.66501 160.099 10.038 159.627 10.2517C159.155 10.4673 158.585 10.5742 157.916 10.5742H156.517V3.29728H157.809C158.512 3.29728 159.106 3.406 159.591 3.61969C160.077 3.83526 160.446 4.20642 160.699 4.73316C160.952 5.25989 161.078 5.99471 161.078 6.93571C161.078 7.87672 160.954 8.60966 160.705 9.13827H160.709Z" fill="white"/>
<path d="M69.3428 27.3815H69.2379L64.4391 20.3146H61.3274V33.8167H64.9921V26.7235H65.0708L69.9502 33.8167H73.0094V20.3146H69.3428V27.3815Z" fill="#FFEE04"/>
<path d="M79.0922 20.3146L74.6365 33.8167H78.5917L79.3715 31.2336H83.8235L84.6033 33.8167H88.5585L84.1028 20.3146H79.0922ZM80.2 28.4893L81.5459 24.0336H81.6509L82.9968 28.4893H80.2Z" fill="#FFEE04"/>
<path d="M88.1011 23.2688H92.1632V33.8167H95.7754V23.2688H99.8375V20.3146H88.1011V23.2688Z" fill="#FFEE04"/>
<path d="M105.208 20.3146H101.541V33.8167H105.208V20.3146Z" fill="#FFEE04"/>
<path d="M117.119 20.9257C116.125 20.3952 115.017 20.1309 113.797 20.1309C112.577 20.1309 111.456 20.3952 110.464 20.9257C109.472 21.4561 108.685 22.2359 108.104 23.2651C107.521 24.296 107.231 25.5632 107.231 27.0647C107.231 28.5662 107.521 29.8221 108.104 30.8531C108.687 31.8841 109.472 32.6658 110.464 33.2C111.456 33.7342 112.565 34.0004 113.797 34.0004C115.029 34.0004 116.127 33.7361 117.119 33.2056C118.11 32.6751 118.901 31.8953 119.486 30.8662C120.071 29.8352 120.363 28.5681 120.363 27.0647C120.363 25.5613 120.071 24.296 119.486 23.2651C118.901 22.2341 118.112 21.4543 117.119 20.9257ZM116.271 29.1135C116.058 29.6703 115.745 30.092 115.328 30.3788C114.914 30.6675 114.402 30.81 113.795 30.81C113.188 30.81 112.678 30.6656 112.262 30.3788C111.846 30.092 111.533 29.6684 111.319 29.1135C111.105 28.5568 110.998 27.8764 110.998 27.0666C110.998 26.2568 111.105 25.5763 111.319 25.0196C111.533 24.4629 111.846 24.0411 112.262 23.7543C112.678 23.4675 113.188 23.3232 113.795 23.3232C114.402 23.3232 114.912 23.4675 115.328 23.7543C115.745 24.0411 116.058 24.4647 116.271 25.0196C116.485 25.5763 116.592 26.2587 116.592 27.0666C116.592 27.8745 116.485 28.5587 116.271 29.1135Z" fill="#FFEE04"/>
<path d="M130.4 20.3146V27.3815H130.295L125.496 20.3146H122.384V33.8167H126.049V26.7235H126.128L131.007 33.8167H134.066V20.3146H130.4Z" fill="#FFEE04"/>
<path fill-rule="evenodd" clip-rule="evenodd" d="M12.5355 14.4885V10.1415H21.5894V4.8291H6.49768V28.9766H12.5355V19.3173H21.5894V14.4885H12.5355Z" fill="black"/>
<path fill-rule="evenodd" clip-rule="evenodd" d="M43.3207 4.8291V18.1082L34.2649 4.8291H28.229V10.1415H21.5894V14.4885H28.229V19.3173H21.5894V23.6643H28.229V28.9766H34.2649V15.6994L43.3207 28.9766H49.3566V4.8291H43.3207Z" fill="black"/>
</g>
<rect width="111" height="34" transform="translate(204.716)" fill="#FF026C"/>
<path d="M215.647 24V10.9091H219.201V21.1364H224.494V24H215.647ZM229.484 10.9091V24H225.93V10.9091H229.484ZM234.748 10.9091L237.433 20.1392H237.535L240.22 10.9091H244.234L239.913 24H235.055L230.734 10.9091H234.748ZM245.495 24V10.9091H254.929V13.7727H249.049V16.0227H254.443V18.8864H249.049V21.1364H254.904V24H245.495ZM271.605 10.9091V24H268.639L263.909 17.1222H263.832V24H260.278V10.9091H263.295L267.948 17.7614H268.051V10.9091H271.605ZM285.967 17.4545C285.967 18.9119 285.684 20.1413 285.117 21.1428C284.551 22.1399 283.786 22.8963 282.823 23.4119C281.86 23.9233 280.786 24.179 279.601 24.179C278.408 24.179 277.33 23.9212 276.367 23.4055C275.408 22.8857 274.645 22.1271 274.078 21.13C273.516 20.1286 273.235 18.9034 273.235 17.4545C273.235 15.9972 273.516 14.7699 274.078 13.7727C274.645 12.7713 275.408 12.0149 276.367 11.5036C277.33 10.9879 278.408 10.7301 279.601 10.7301C280.786 10.7301 281.86 10.9879 282.823 11.5036C283.786 12.0149 284.551 12.7713 285.117 13.7727C285.684 14.7699 285.967 15.9972 285.967 17.4545ZM282.311 17.4545C282.311 16.6705 282.207 16.0099 281.998 15.473C281.793 14.9318 281.489 14.5227 281.084 14.2457C280.683 13.9645 280.189 13.8239 279.601 13.8239C279.013 13.8239 278.516 13.9645 278.112 14.2457C277.711 14.5227 277.406 14.9318 277.198 15.473C276.993 16.0099 276.891 16.6705 276.891 17.4545C276.891 18.2386 276.993 18.9013 277.198 19.4425C277.406 19.9794 277.711 20.3885 278.112 20.6697C278.516 20.9467 279.013 21.0852 279.601 21.0852C280.189 21.0852 280.683 20.9467 281.084 20.6697C281.489 20.3885 281.793 19.9794 281.998 19.4425C282.207 18.9013 282.311 18.2386 282.311 17.4545ZM290.11 24L286.249 10.9091H290.212L292.002 18.9631H292.104L294.226 10.9091H297.345L299.467 18.9886H299.57L301.36 10.9091H305.323L301.462 24H298.061L295.837 16.6875H295.735L293.51 24H290.11Z" fill="white"/>
<defs>
<clipPath id="clip0_5366_12438">
<rect width="164.255" height="34" fill="white" transform="translate(0.461792)"/>
</clipPath>
</defs>
</svg>
