<svg width="120" height="34" viewBox="0 0 120 34" fill="none" xmlns="http://www.w3.org/2000/svg">
<g clip-path="url(#clip0_3284_24456)">
<path d="M53.7256 33.805V0L3.8147e-05 0V33.805H53.7256Z" fill="#FFEE04"/>
<path fill-rule="evenodd" clip-rule="evenodd" d="M12.0737 14.4885V10.1415H21.1276V4.8291H6.03589V28.9766H12.0737V19.3173H21.1276V14.4885H12.0737Z" fill="black"/>
<path fill-rule="evenodd" clip-rule="evenodd" d="M42.8589 4.8291V18.1082L33.8031 4.8291H27.7672V10.1415H21.1276V14.4885H27.7672V19.3173H21.1276V23.6643H27.7672V28.9766H33.8031V15.6994L42.8589 28.9766H48.8949V4.8291H42.8589Z" fill="black"/>
</g>
<rect width="56" height="34" transform="translate(64)" fill="#FF026C"/>
<path d="M76.6943 17V6.81818H79.4585V14.7727H83.575V17H76.6943ZM87.4566 6.81818V17H84.6924V6.81818H87.4566ZM91.5507 6.81818L93.6388 13.9972H93.7183L95.8064 6.81818H98.9285L95.5677 17H91.7893L88.4285 6.81818H91.5507ZM99.9092 17V6.81818H107.247V9.04545H102.673V10.7955H106.869V13.0227H102.673V14.7727H107.227V17H99.9092ZM83.5011 17.8182V28H81.1942L77.5153 22.6506H77.4556V28H74.6914V17.8182H77.038L80.6573 23.1477H80.7369V17.8182H83.5011ZM94.6722 22.9091C94.6722 24.0426 94.4518 24.9988 94.011 25.7777C93.5702 26.5533 92.9753 27.1416 92.2262 27.5426C91.4772 27.9403 90.6419 28.1392 89.7205 28.1392C88.7925 28.1392 87.954 27.9387 87.2049 27.5376C86.4592 27.1333 85.8659 26.5433 85.4251 25.7678C84.9876 24.9889 84.7688 24.036 84.7688 22.9091C84.7688 21.7756 84.9876 20.821 85.4251 20.0455C85.8659 19.2666 86.4592 18.6783 87.2049 18.2805C87.954 17.8795 88.7925 17.679 89.7205 17.679C90.6419 17.679 91.4772 17.8795 92.2262 18.2805C92.9753 18.6783 93.5702 19.2666 94.011 20.0455C94.4518 20.821 94.6722 21.7756 94.6722 22.9091ZM91.8285 22.9091C91.8285 22.2992 91.7473 21.7855 91.5849 21.3679C91.4258 20.947 91.1888 20.6288 90.8739 20.4134C90.5624 20.1946 90.1779 20.0852 89.7205 20.0852C89.2631 20.0852 88.877 20.1946 88.5621 20.4134C88.2506 20.6288 88.0136 20.947 87.8512 21.3679C87.6921 21.7855 87.6126 22.2992 87.6126 22.9091C87.6126 23.5189 87.6921 24.0343 87.8512 24.4553C88.0136 24.8729 88.2506 25.1911 88.5621 25.4098C88.877 25.6252 89.2631 25.733 89.7205 25.733C90.1779 25.733 90.5624 25.6252 90.8739 25.4098C91.1888 25.1911 91.4258 24.8729 91.5849 24.4553C91.7473 24.0343 91.8285 23.5189 91.8285 22.9091ZM97.8938 28L94.891 17.8182H97.9734L99.3654 24.0824H99.445L101.096 17.8182H103.522L105.172 24.1023H105.252L106.644 17.8182H109.726L106.723 28H104.078L102.348 22.3125H102.269L100.539 28H97.8938Z" fill="white"/>
<defs>
<clipPath id="clip0_3284_24456">
<rect width="54" height="34" fill="white"/>
</clipPath>
</defs>
</svg>
