<svg width="66" height="53" viewBox="0 0 66 53" fill="none" xmlns="http://www.w3.org/2000/svg">
<g clip-path="url(#clip0_3284_24458)">
<path d="M56.5814 29.828V0L9.17653 0V29.828L56.5814 29.828Z" fill="#FFEE04"/>
<path fill-rule="evenodd" clip-rule="evenodd" d="M19.8298 12.7837V8.94814H27.8186V4.26074H14.5023V25.5674H19.8298V17.0444H27.8186V12.7837H19.8298Z" fill="black"/>
<path fill-rule="evenodd" clip-rule="evenodd" d="M46.9932 4.26074V15.9776L39.0028 4.26074H33.677V8.94814H27.8186V12.7837H33.677V17.0444H27.8186V20.88H33.677V25.5674H39.0028V13.8522L46.9932 25.5674H52.3191V4.26074H46.9932Z" fill="black"/>
</g>
<rect width="65" height="19" transform="translate(0.5 34)" fill="#FF026C"/>
<path d="M3.28711 48V39.2727H5.65643V46.0909H9.18484V48H3.28711ZM12.5119 39.2727V48H10.1426V39.2727H12.5119ZM16.0211 39.2727L17.8109 45.4261H17.8791L19.6689 39.2727H22.345L19.4643 48H16.2257L13.345 39.2727H16.0211ZM23.1855 48V39.2727H29.4753V41.1818H25.5549V42.6818H29.1515V44.5909H25.5549V46.0909H29.4583V48H23.1855ZM40.5922 39.2727V48H38.6149L35.4615 43.4148H35.4103V48H33.041V39.2727H35.0524L38.1547 43.8409H38.2228V39.2727H40.5922ZM50.1674 43.6364C50.1674 44.608 49.9785 45.4276 49.6007 46.0952C49.2228 46.7599 48.7129 47.2642 48.0708 47.608C47.4288 47.9489 46.7129 48.1193 45.9231 48.1193C45.1277 48.1193 44.4089 47.9474 43.7669 47.6037C43.1277 47.2571 42.6191 46.7514 42.2413 46.0866C41.8663 45.419 41.6788 44.6023 41.6788 43.6364C41.6788 42.6648 41.8663 41.8466 42.2413 41.1818C42.6191 40.5142 43.1277 40.0099 43.7669 39.669C44.4089 39.3253 45.1277 39.1534 45.9231 39.1534C46.7129 39.1534 47.4288 39.3253 48.0708 39.669C48.7129 40.0099 49.2228 40.5142 49.6007 41.1818C49.9785 41.8466 50.1674 42.6648 50.1674 43.6364ZM47.7299 43.6364C47.7299 43.1136 47.6603 42.6733 47.5211 42.3153C47.3848 41.9545 47.1816 41.6818 46.9118 41.4972C46.6447 41.3097 46.3152 41.2159 45.9231 41.2159C45.5311 41.2159 45.2001 41.3097 44.9302 41.4972C44.6632 41.6818 44.46 41.9545 44.3208 42.3153C44.1845 42.6733 44.1163 43.1136 44.1163 43.6364C44.1163 44.1591 44.1845 44.6009 44.3208 44.9616C44.46 45.3196 44.6632 45.5923 44.9302 45.7798C45.2001 45.9645 45.5311 46.0568 45.9231 46.0568C46.3152 46.0568 46.6447 45.9645 46.9118 45.7798C47.1816 45.5923 47.3848 45.3196 47.5211 44.9616C47.6603 44.6009 47.7299 44.1591 47.7299 43.6364ZM52.9288 48L50.3549 39.2727H52.997L54.1902 44.642H54.2583L55.6731 39.2727H57.7527L59.1674 44.6591H59.2356L60.4288 39.2727H63.0708L60.497 48H58.2299L56.747 43.125H56.6788L55.1958 48H52.9288Z" fill="white"/>
<defs>
<clipPath id="clip0_3284_24458">
<rect width="47.6471" height="30" fill="white" transform="translate(9.17651)"/>
</clipPath>
</defs>
</svg>
