<svg width="168" height="18" viewBox="0 0 168 18" fill="none" xmlns="http://www.w3.org/2000/svg">
<path d="M0.91232 14V0.909091H9.73334V3.19105H3.68008V6.31037H9.27951V8.59233H3.68008V11.718H9.75891V14H0.91232ZM14.6824 14.1854C14.056 14.1854 13.4977 14.0767 13.0077 13.8594C12.5176 13.6378 12.1298 13.3118 11.8443 12.8814C11.5631 12.4467 11.4224 11.9055 11.4224 11.2578C11.4224 10.7124 11.5226 10.2543 11.7229 9.88352C11.9232 9.51278 12.1959 9.21449 12.541 8.98864C12.8862 8.76278 13.2783 8.59233 13.7172 8.47727C14.1604 8.36222 14.6249 8.28125 15.1107 8.23438C15.6817 8.17472 16.1419 8.11932 16.4913 8.06818C16.8408 8.01278 17.0943 7.93182 17.252 7.82528C17.4097 7.71875 17.4885 7.56108 17.4885 7.35227V7.31392C17.4885 6.90909 17.3607 6.59588 17.105 6.37429C16.8535 6.1527 16.4956 6.0419 16.0311 6.0419C15.541 6.0419 15.1511 6.15057 14.8614 6.3679C14.5716 6.58097 14.3798 6.84943 14.2861 7.1733L11.7676 6.96875C11.8955 6.37216 12.1469 5.85653 12.5219 5.42188C12.8969 4.98295 13.3805 4.64631 13.9729 4.41193C14.5695 4.1733 15.2598 4.05398 16.0439 4.05398C16.5893 4.05398 17.1114 4.1179 17.6099 4.24574C18.1128 4.37358 18.5581 4.57173 18.9459 4.8402C19.3379 5.10866 19.6469 5.45384 19.8727 5.87571C20.0986 6.29332 20.2115 6.79403 20.2115 7.37784V14H17.6291V12.6385H17.5524C17.3947 12.9453 17.1838 13.2159 16.9196 13.4503C16.6554 13.6804 16.3379 13.8615 15.9672 13.9936C15.5964 14.1214 15.1682 14.1854 14.6824 14.1854ZM15.4622 12.3061C15.8628 12.3061 16.2165 12.2273 16.5233 12.0696C16.8301 11.9077 17.0709 11.6903 17.2456 11.4176C17.4203 11.1449 17.5077 10.8359 17.5077 10.4908V9.44886C17.4224 9.50426 17.3053 9.5554 17.1561 9.60227C17.0112 9.64489 16.8472 9.68537 16.6639 9.72372C16.4807 9.75781 16.2974 9.78977 16.1142 9.8196C15.931 9.84517 15.7648 9.86861 15.6156 9.88991C15.296 9.93679 15.0169 10.0114 14.7783 10.1136C14.5396 10.2159 14.3543 10.3544 14.2222 10.5291C14.0901 10.6996 14.024 10.9126 14.024 11.1683C14.024 11.5391 14.1582 11.8224 14.4267 12.0185C14.6994 12.2102 15.0446 12.3061 15.4622 12.3061ZM22.3241 14V4.18182H24.964V5.89489H25.0663C25.2452 5.28551 25.5457 4.82528 25.9675 4.5142C26.3894 4.19886 26.8752 4.04119 27.4249 4.04119C27.5613 4.04119 27.7083 4.04972 27.866 4.06676C28.0236 4.08381 28.1621 4.10724 28.2815 4.13707V6.55327C28.1536 6.51491 27.9768 6.48082 27.7509 6.45099C27.5251 6.42116 27.3184 6.40625 27.1309 6.40625C26.7303 6.40625 26.3724 6.49361 26.057 6.66832C25.7459 6.83878 25.4988 7.07741 25.3156 7.38423C25.1366 7.69105 25.0471 8.04474 25.0471 8.44531V14H22.3241ZM32.4123 0.909091V14H29.6893V0.909091H32.4123ZM36.2747 17.6818C35.9295 17.6818 35.6057 17.6541 35.3031 17.5987C35.0048 17.5476 34.7577 17.4815 34.5616 17.4006L35.1753 15.3679C35.4949 15.4659 35.7825 15.5192 36.0382 15.5277C36.2982 15.5362 36.5219 15.4766 36.7094 15.3487C36.9011 15.2209 37.0567 15.0036 37.176 14.6967L37.3358 14.2812L33.8138 4.18182H36.6774L38.7101 11.392H38.8124L40.8642 4.18182H43.747L39.931 15.0611C39.7477 15.5895 39.4984 16.0497 39.1831 16.4418C38.872 16.8381 38.4778 17.1428 38.0006 17.3558C37.5233 17.5732 36.948 17.6818 36.2747 17.6818ZM49.3576 14V0.909091H54.5991C55.5622 0.909091 56.3654 1.05185 57.0089 1.33736C57.6524 1.62287 58.136 2.01918 58.4599 2.52628C58.7838 3.02912 58.9457 3.60866 58.9457 4.26491C58.9457 4.77628 58.8434 5.22585 58.6389 5.61364C58.4343 5.99716 58.1531 6.3125 57.7951 6.55966C57.4414 6.80256 57.0366 6.97514 56.5806 7.07741V7.20526C57.0792 7.22656 57.5458 7.36719 57.9805 7.62713C58.4194 7.88707 58.7752 8.25142 59.048 8.72017C59.3207 9.18466 59.4571 9.73864 59.4571 10.3821C59.4571 11.0767 59.2845 11.6967 58.9393 12.2422C58.5984 12.7834 58.0934 13.2116 57.4244 13.527C56.7554 13.8423 55.9308 14 54.9507 14H49.3576ZM52.1254 11.7372H54.3818C55.1531 11.7372 55.7156 11.5902 56.0693 11.2962C56.423 10.9979 56.5998 10.6016 56.5998 10.1072C56.5998 9.74503 56.5125 9.42543 56.3377 9.14844C56.163 8.87145 55.9137 8.65412 55.5899 8.49645C55.2703 8.33878 54.8889 8.25994 54.4457 8.25994H52.1254V11.7372ZM52.1254 6.38707H54.1772C54.5565 6.38707 54.8931 6.32102 55.1872 6.18892C55.4855 6.05256 55.7198 5.8608 55.8903 5.61364C56.065 5.36648 56.1524 5.07031 56.1524 4.72514C56.1524 4.25213 55.9841 3.87074 55.6474 3.58097C55.315 3.29119 54.842 3.14631 54.2284 3.14631H52.1254V6.38707ZM61.2069 14V4.18182H63.9299V14H61.2069ZM62.5748 2.91619C62.17 2.91619 61.8227 2.78196 61.5329 2.51349C61.2474 2.24077 61.1046 1.91477 61.1046 1.53551C61.1046 1.16051 61.2474 0.838778 61.5329 0.570312C61.8227 0.297585 62.17 0.161221 62.5748 0.161221C62.9796 0.161221 63.3248 0.297585 63.6103 0.570312C63.9001 0.838778 64.045 1.16051 64.045 1.53551C64.045 1.91477 63.9001 2.24077 63.6103 2.51349C63.3248 2.78196 62.9796 2.91619 62.5748 2.91619ZM66.1112 14V4.18182H68.7511V5.89489H68.8534C69.0323 5.28551 69.3328 4.82528 69.7546 4.5142C70.1765 4.19886 70.6623 4.04119 71.212 4.04119C71.3484 4.04119 71.4954 4.04972 71.6531 4.06676C71.8108 4.08381 71.9493 4.10724 72.0686 4.13707V6.55327C71.9407 6.51491 71.7639 6.48082 71.538 6.45099C71.3122 6.42116 71.1055 6.40625 70.918 6.40625C70.5174 6.40625 70.1595 6.49361 69.8441 6.66832C69.5331 6.83878 69.2859 7.07741 69.1027 7.38423C68.9237 7.69105 68.8342 8.04474 68.8342 8.44531V14H66.1112ZM76.6373 14.1598C75.8915 14.1598 75.2161 13.968 74.611 13.5845C74.0102 13.1967 73.5329 12.6278 73.1792 11.8778C72.8298 11.1236 72.655 10.1989 72.655 9.10369C72.655 7.97869 72.8361 7.04332 73.1984 6.29759C73.5606 5.54759 74.0421 4.98722 74.643 4.61648C75.2481 4.24148 75.9107 4.05398 76.6309 4.05398C77.1806 4.05398 77.6387 4.14773 78.0052 4.33523C78.3759 4.51847 78.6742 4.74858 78.9001 5.02557C79.1302 5.2983 79.3049 5.56676 79.4242 5.83097H79.5073V0.909091H82.2239V14H79.5393V12.4276H79.4242C79.2964 12.7003 79.1153 12.9709 78.8809 13.2393C78.6508 13.5036 78.3504 13.723 77.9796 13.8977C77.6131 14.0724 77.1657 14.1598 76.6373 14.1598ZM77.5002 11.9929C77.9391 11.9929 78.3099 11.8736 78.6124 11.6349C78.9192 11.392 79.1536 11.0533 79.3156 10.6186C79.4817 10.1839 79.5648 9.67472 79.5648 9.09091C79.5648 8.5071 79.4839 8 79.3219 7.5696C79.16 7.1392 78.9256 6.80682 78.6188 6.57244C78.312 6.33807 77.9391 6.22088 77.5002 6.22088C77.0528 6.22088 76.6756 6.34233 76.3688 6.58523C76.062 6.82812 75.8298 7.16477 75.6721 7.59517C75.5144 8.02557 75.4356 8.52415 75.4356 9.09091C75.4356 9.66193 75.5144 10.1669 75.6721 10.6058C75.834 11.0405 76.0663 11.3814 76.3688 11.6286C76.6756 11.8714 77.0528 11.9929 77.5002 11.9929ZM88.6032 14V12.0057L93.263 7.69105C93.6593 7.30753 93.9917 6.96236 94.2602 6.65554C94.5329 6.34872 94.7396 6.0483 94.8802 5.75426C95.0208 5.45597 95.0911 5.13423 95.0911 4.78906C95.0911 4.40554 95.0038 4.07528 94.829 3.7983C94.6543 3.51705 94.4157 3.30185 94.1131 3.1527C93.8106 2.99929 93.4675 2.92259 93.084 2.92259C92.6834 2.92259 92.334 3.00355 92.0357 3.16548C91.7374 3.32741 91.5073 3.55966 91.3454 3.86222C91.1834 4.16477 91.1025 4.52486 91.1025 4.94247H88.4754C88.4754 4.08594 88.6692 3.34233 89.057 2.71165C89.4448 2.08097 89.9881 1.59304 90.687 1.24787C91.3859 0.902698 92.1913 0.730113 93.1032 0.730113C94.0407 0.730113 94.8567 0.896306 95.5513 1.22869C96.2502 1.55682 96.7935 2.01278 97.1813 2.59659C97.5691 3.1804 97.763 3.84943 97.763 4.60369C97.763 5.09801 97.665 5.58594 97.469 6.06747C97.2772 6.54901 96.9342 7.08381 96.4398 7.67188C95.9455 8.25568 95.2488 8.95668 94.3496 9.77486L92.4384 11.6477V11.7372H97.9356V14H88.6032ZM99.4617 11.6989V9.51918L104.927 0.909091H106.806V3.92614H105.694L102.249 9.37855V9.48082H110.015V11.6989H99.4617ZM105.745 14V11.0341L105.796 10.0689V0.909091H108.391V14H105.745ZM116.102 14V0.909091H118.87V6.31037H124.488V0.909091H127.25V14H124.488V8.59233H118.87V14H116.102ZM133.916 14.1918C132.924 14.1918 132.065 13.9808 131.34 13.5589C130.62 13.1328 130.064 12.5405 129.672 11.782C129.28 11.0192 129.084 10.1349 129.084 9.12926C129.084 8.11506 129.28 7.22869 129.672 6.47017C130.064 5.70739 130.62 5.11506 131.34 4.69318C132.065 4.26705 132.924 4.05398 133.916 4.05398C134.909 4.05398 135.766 4.26705 136.486 4.69318C137.21 5.11506 137.769 5.70739 138.161 6.47017C138.553 7.22869 138.749 8.11506 138.749 9.12926C138.749 10.1349 138.553 11.0192 138.161 11.782C137.769 12.5405 137.21 13.1328 136.486 13.5589C135.766 13.9808 134.909 14.1918 133.916 14.1918ZM133.929 12.0824C134.381 12.0824 134.758 11.9545 135.061 11.6989C135.363 11.4389 135.591 11.0852 135.745 10.6378C135.902 10.1903 135.981 9.68111 135.981 9.11009C135.981 8.53906 135.902 8.02983 135.745 7.58239C135.591 7.13494 135.363 6.78125 135.061 6.52131C134.758 6.26136 134.381 6.13139 133.929 6.13139C133.473 6.13139 133.09 6.26136 132.779 6.52131C132.472 6.78125 132.24 7.13494 132.082 7.58239C131.928 8.02983 131.852 8.53906 131.852 9.11009C131.852 9.68111 131.928 10.1903 132.082 10.6378C132.24 11.0852 132.472 11.4389 132.779 11.6989C133.09 11.9545 133.473 12.0824 133.929 12.0824ZM146.816 9.8196V4.18182H149.539V14H146.924V12.2166H146.822C146.6 12.7919 146.232 13.2543 145.716 13.6037C145.205 13.9531 144.58 14.1278 143.843 14.1278C143.187 14.1278 142.61 13.9787 142.111 13.6804C141.612 13.3821 141.223 12.9581 140.941 12.4084C140.664 11.8587 140.524 11.2003 140.519 10.4332V4.18182H143.242V9.94744C143.247 10.527 143.402 10.9851 143.709 11.3217C144.016 11.6584 144.427 11.8267 144.943 11.8267C145.271 11.8267 145.578 11.7521 145.863 11.603C146.149 11.4496 146.379 11.2237 146.553 10.9254C146.732 10.6271 146.82 10.2585 146.816 9.8196ZM151.717 14V4.18182H154.357V5.89489H154.459C154.638 5.28551 154.938 4.82528 155.36 4.5142C155.782 4.19886 156.268 4.04119 156.818 4.04119C156.954 4.04119 157.101 4.04972 157.259 4.06676C157.416 4.08381 157.555 4.10724 157.674 4.13707V6.55327C157.546 6.51491 157.369 6.48082 157.143 6.45099C156.918 6.42116 156.711 6.40625 156.523 6.40625C156.123 6.40625 155.765 6.49361 155.45 6.66832C155.139 6.83878 154.891 7.07741 154.708 7.38423C154.529 7.69105 154.44 8.04474 154.44 8.44531V14H151.717ZM167.251 6.98153L164.758 7.13494C164.715 6.92187 164.624 6.73011 164.483 6.55966C164.343 6.38494 164.157 6.24645 163.927 6.14418C163.701 6.03764 163.431 5.98438 163.115 5.98438C162.693 5.98438 162.338 6.07386 162.048 6.25284C161.758 6.42756 161.613 6.66193 161.613 6.95597C161.613 7.19034 161.707 7.38849 161.894 7.55043C162.082 7.71236 162.404 7.84233 162.86 7.94034L164.637 8.2983C165.591 8.49432 166.303 8.80966 166.772 9.24432C167.24 9.67898 167.475 10.25 167.475 10.9574C167.475 11.6009 167.285 12.1655 166.906 12.6513C166.531 13.1371 166.015 13.5163 165.359 13.7891C164.707 14.0575 163.955 14.1918 163.102 14.1918C161.803 14.1918 160.767 13.9212 159.996 13.38C159.229 12.8345 158.779 12.093 158.647 11.1555L161.325 11.0149C161.406 11.4112 161.602 11.7138 161.914 11.9226C162.225 12.1271 162.623 12.2294 163.109 12.2294C163.586 12.2294 163.97 12.1378 164.259 11.9545C164.553 11.767 164.703 11.5263 164.707 11.2322C164.703 10.9851 164.598 10.7827 164.394 10.625C164.189 10.4631 163.874 10.3395 163.448 10.2543L161.747 9.91548C160.789 9.72372 160.075 9.39134 159.606 8.91832C159.142 8.44531 158.909 7.84233 158.909 7.10938C158.909 6.47869 159.08 5.93537 159.421 5.4794C159.766 5.02344 160.25 4.67188 160.872 4.42472C161.498 4.17756 162.231 4.05398 163.071 4.05398C164.311 4.05398 165.286 4.31605 165.998 4.8402C166.714 5.36435 167.132 6.07812 167.251 6.98153Z" fill="url(#paint0_linear_391_13193)"/>
<defs>
<linearGradient id="paint0_linear_391_13193" x1="4.77112" y1="18" x2="168.439" y2="18" gradientUnits="userSpaceOnUse">
<stop stop-color="#00FFA3"/>
<stop offset="1" stop-color="#00E0FF"/>
</linearGradient>
</defs>
</svg>
