<svg width="169" height="26" viewBox="0 0 169 26" fill="none" xmlns="http://www.w3.org/2000/svg">
<g id="Group 30">
<g id="Layer 2">
<g id="Group">
<g id="Group_2">
<path id="Vector" fill-rule="evenodd" clip-rule="evenodd" d="M7.00393 10.0913C7.94699 12.1623 10.0826 13.2167 11.7737 12.4459C13.4647 11.6758 14.0715 9.37262 13.1284 7.30219C12.1854 5.23177 8.20251 0.11973 6.51086 0.889856C4.81981 1.65998 6.06087 8.02086 7.00393 10.0913Z" fill="#62A50A"/>
<path id="Vector_2" fill-rule="evenodd" clip-rule="evenodd" d="M14.3229 10.0913C13.3798 12.1623 11.2442 13.2167 9.55315 12.4459C7.8621 11.6758 7.25533 9.37262 8.19839 7.30219C9.14145 5.23177 13.1249 0.11973 14.816 0.889856C16.507 1.65998 15.266 8.02086 14.3229 10.0913Z" fill="#62A50A"/>
<path id="Vector_3" fill-rule="evenodd" clip-rule="evenodd" d="M13.9678 8.57851C13.9678 10.8542 12.461 12.6984 10.603 12.6984C8.74502 12.6984 7.23828 10.8536 7.23828 8.57851C7.23828 6.30343 8.74443 0 10.603 0C12.4616 0 13.9678 6.30283 13.9678 8.57851Z" fill="#79C90F"/>
</g>
<path id="Vector_4" fill-rule="evenodd" clip-rule="evenodd" d="M11.3073 25.9996C16.2811 25.9996 20.3148 24.5545 20.3148 18.0021C20.3148 11.4498 16.2811 6.07324 11.3073 6.07324C6.33348 6.07324 2.30273 11.4504 2.30273 18.0027C2.30273 24.5551 6.33288 26.0002 11.3067 26.0002L11.3073 25.9996Z" fill="url(#paint0_linear_273_1952)"/>
<path id="Vector_5" d="M11.4338 18.4978C11.3512 18.4978 11.2669 18.493 11.1819 18.4829C10.6224 18.4188 10.1999 18.1801 9.92527 17.7732C9.86962 17.6912 9.89176 17.5793 9.97374 17.5236C10.0563 17.4686 10.1676 17.4901 10.2233 17.5721C10.4393 17.8922 10.766 18.0736 11.2226 18.1256C11.6845 18.1783 12.0795 18.0652 12.4307 17.7797C12.5073 17.7169 12.6204 17.7289 12.6832 17.8061C12.7455 17.8833 12.7341 17.9958 12.6569 18.0586C12.2979 18.3506 11.8874 18.4972 11.4338 18.4972V18.4978Z" fill="#010101"/>
<path id="Vector_6" d="M8.39255 23.1615L6.78767 21.4914L7.91922 20.288C8.01796 20.1827 8.01317 20.0175 7.90785 19.9182C7.80254 19.8195 7.63738 19.8243 7.53805 19.9296L6.42504 21.1138L4.87402 19.4993C4.77409 19.3952 4.60833 19.3916 4.50422 19.4922C4.4001 19.5921 4.3965 19.7578 4.49703 19.862L6.06661 21.4956L5.30306 22.3076C5.20433 22.4129 5.20912 22.578 5.31443 22.6774C5.3647 22.7246 5.42932 22.7486 5.49335 22.7486C5.56277 22.7486 5.63278 22.7211 5.68424 22.666L6.42923 21.8731L8.01556 23.5241C8.06702 23.5774 8.13524 23.6043 8.20405 23.6043C8.26928 23.6043 8.3345 23.5797 8.38537 23.5313C8.48949 23.4313 8.49308 23.2656 8.39255 23.1615Z" fill="#ECB732"/>
<path id="Vector_7" d="M18.0531 19.4919C17.949 19.392 17.7832 19.395 17.6833 19.4991L16.1323 21.1136L15.0193 19.9293C14.9205 19.824 14.7548 19.8186 14.6495 19.918C14.5442 20.0167 14.5394 20.1825 14.6381 20.2878L15.7697 21.4911L14.1648 23.1612C14.0648 23.2654 14.0678 23.4311 14.172 23.531C14.2228 23.5795 14.288 23.6041 14.3533 23.6041C14.4221 23.6041 14.4903 23.5771 14.5418 23.5239L16.1281 21.8729L16.8731 22.6658C16.9245 22.7208 16.994 22.7484 17.064 22.7484C17.128 22.7484 17.1926 22.725 17.2429 22.6771C17.3482 22.5784 17.353 22.4127 17.2543 22.3073L16.4907 21.4953L18.0603 19.8617C18.1602 19.7576 18.1572 19.5919 18.0531 19.4919Z" fill="#ECB732"/>
<path id="Vector_8" d="M12.8415 8.1894C12.7451 8.09246 12.5884 8.09246 12.4914 8.1894L11.3389 9.3419L10.1864 8.1894C10.0901 8.09246 9.93332 8.09246 9.83638 8.1894C9.73944 8.28574 9.73944 8.44252 9.83638 8.53946L10.9889 9.69196L10.2864 10.3945C10.1894 10.4908 10.1894 10.6476 10.2864 10.7445C10.3348 10.793 10.3983 10.8169 10.4611 10.8169C10.5239 10.8169 10.588 10.793 10.6358 10.7445L11.3383 10.042L12.0408 10.7445C12.0893 10.793 12.1527 10.8169 12.2156 10.8169C12.2784 10.8169 12.3424 10.793 12.3903 10.7445C12.4872 10.6482 12.4872 10.4914 12.3903 10.3945L11.6878 9.69196L12.8403 8.53946C12.9372 8.44312 12.9372 8.28634 12.8403 8.1894H12.8415Z" fill="#ECB732"/>
<path id="Vector_9" d="M16.4089 12.5237C16.4089 12.5237 13.2434 12.8558 12.8916 13.9305C12.5397 15.0052 13.165 16.8812 15.178 17.0373C17.1904 17.1935 18.8126 16.9398 19.3207 15.6108C19.8287 14.2823 19.8652 13.3423 19.809 12.9336C19.7306 12.3669 17.3472 12.3472 16.4089 12.5231V12.5237Z" fill="#101217"/>
<path id="Vector_10" d="M6.20877 12.5236C5.27109 12.3476 2.88711 12.3674 2.80872 12.9341C2.75247 13.3422 2.78898 14.2822 3.29701 15.6113C3.80504 16.9397 5.42667 17.194 7.43965 17.0378C9.45203 16.8816 10.0774 15.0057 9.7261 13.931C9.37424 12.8563 6.20877 12.5242 6.20877 12.5242V12.5236Z" fill="#101217"/>
<path id="Vector_11" d="M18.5774 11.5272C17.2292 11.5661 13.6341 12.3871 12.5594 12.6605C12.0292 12.7952 11.6038 12.8113 11.3087 12.7934C11.0137 12.8119 10.5883 12.7958 10.0581 12.6605C8.98341 12.3871 5.38829 11.5661 4.04012 11.5272C2.69195 11.4883 1.61724 11.2537 1.63699 12.3087C1.65673 13.3636 2.75059 15.8847 2.75059 15.8847C2.75059 15.8847 3.33701 17.2328 4.68518 17.526C6.03335 17.8192 8.15105 17.705 9.08154 16.9205C10.0779 16.0803 10.4297 14.4389 10.4297 14.4389C10.4297 14.4389 10.5883 13.9447 11.3093 13.9794C12.0298 13.9447 12.1884 14.4389 12.1884 14.4389C12.1884 14.4389 12.5402 16.0803 13.5365 16.9205C14.467 17.705 16.5847 17.8192 17.9329 17.526C19.2811 17.2328 19.8675 15.8847 19.8675 15.8847C19.8675 15.8847 20.962 13.3642 20.9811 12.3087C21.0009 11.2537 19.9261 11.4883 18.578 11.5272H18.5774ZM7.43956 17.0372C5.42718 17.1933 3.80495 16.9396 3.29692 15.6106C2.78889 14.2822 2.75238 13.3421 2.80863 12.9334C2.88702 12.3667 5.2704 12.347 6.20868 12.5229C6.20868 12.5229 9.37416 12.855 9.72601 13.9297C10.0779 15.0044 9.45254 16.8804 7.43956 17.0366V17.0372ZM19.32 15.6106C18.8119 16.939 17.1903 17.1933 15.1773 17.0372C13.1649 16.881 12.5396 15.005 12.8909 13.9303C13.2427 12.8556 16.4082 12.5235 16.4082 12.5235C17.3459 12.3476 19.7299 12.3673 19.8083 12.934C19.8645 13.3421 19.828 14.2822 19.32 15.6112V15.6106Z" fill="#2E3442"/>
<path id="Vector_12" opacity="0.2" d="M19.2976 14.3681C19.4861 13.8812 19.4009 13.3943 19.1072 13.2805C18.8135 13.1668 18.4226 13.4693 18.234 13.9562C18.0454 14.4432 18.1307 14.9301 18.4244 15.0438C18.7181 15.1576 19.109 14.855 19.2976 14.3681Z" fill="white"/>
<path id="Vector_13" opacity="0.2" d="M17.724 15.1259C17.8468 14.8087 17.7912 14.4916 17.5998 14.4175C17.4085 14.3433 17.1538 14.5403 17.031 14.8575C16.9082 15.1746 16.9637 15.4917 17.1551 15.5658C17.3465 15.64 17.6012 15.443 17.724 15.1259Z" fill="white"/>
<path id="Vector_14" opacity="0.2" d="M18.2401 15.4541C18.2985 15.3034 18.2606 15.1482 18.1555 15.1076C18.0504 15.0669 17.9179 15.156 17.8596 15.3067C17.8012 15.4574 17.8391 15.6126 17.9442 15.6533C18.0493 15.694 18.1818 15.6048 18.2401 15.4541Z" fill="white"/>
<path id="Vector_15" d="M10.2572 1.74316L0.601562 6.1892V6.40402L8.33155 8.06335L19.7015 3.61672V3.4019L10.2572 1.74316Z" fill="#7B859B"/>
<path id="Union" d="M19.2559 3.7373C19.6532 4.95503 19.7274 6.26849 19.4635 7.52391C19.5718 7.56041 19.6604 7.64897 19.6915 7.76746C19.7313 7.91977 19.6649 8.07444 19.5386 8.15369C19.5778 8.19693 19.6119 8.24769 19.6402 8.30541C19.7264 8.48313 19.7539 8.72189 19.7018 8.97082C19.6767 9.0905 19.6139 9.19641 19.5349 9.28736C19.5038 9.32387 19.469 9.35798 19.4337 9.38969C19.3877 9.43038 19.3398 9.46748 19.2925 9.50039C19.174 9.58237 19.0609 9.63802 19.0005 9.66555C18.9718 9.67871 18.9544 9.68529 18.9544 9.68529C18.9544 9.68529 18.9383 9.66914 18.9119 9.63922C18.8677 9.58895 18.7947 9.50099 18.7252 9.39029C18.6953 9.34242 18.666 9.29036 18.6403 9.23471C18.6235 9.1988 18.608 9.16111 18.5948 9.12341C18.5505 8.99834 18.5296 8.86311 18.5577 8.73086C18.611 8.47655 18.7372 8.26472 18.8922 8.13786C18.9413 8.09777 18.9939 8.06545 19.0472 8.04391C19.0493 8.04305 19.0514 8.0422 19.0536 8.04136C19.0355 8.01226 19.0215 7.98001 19.0123 7.94518C18.9633 7.75728 19.0758 7.5658 19.2631 7.51673C19.3002 7.50716 19.3373 7.50357 19.3738 7.50596C19.5431 6.70531 19.576 5.87954 19.4671 5.06693C19.4061 4.61215 19.3008 4.16994 19.1565 3.74508L19.2559 3.7373Z" fill="#FFD908"/>
<path id="Vector_16" d="M10.2578 1.95801L0.601562 6.40404L8.33155 8.06337L19.7015 3.61674L10.2578 1.95801Z" fill="#576073"/>
<path id="Vector_17" d="M4.42306 10.5632C5.1525 10.1563 7.41333 8.93722 10.681 8.69083C15.3525 8.33859 16.422 8.999 17.1861 9.20963C17.4171 9.27306 17.5505 9.35863 17.5661 9.46694L15.1953 4.45124C14.8882 3.81854 13.182 3.49354 10.4195 3.57479C7.65707 3.73729 5.46335 5.36227 5.32304 5.89217L4.04248 10.9707C4.02513 10.8474 4.16216 10.7086 4.42306 10.5626V10.5632Z" fill="url(#paint1_linear_273_1952)"/>
</g>
</g>
<g id="Group 28">
<g id="Mastering Pinia">
<path d="M33.9824 6.66259H37.8735L41.1742 14.7113H41.3266L44.6273 6.66259H48.5184V19.6624H45.4588V11.6772H45.3509L42.2279 19.5799H40.2729L37.1499 11.6327H37.042V19.6624H33.9824V6.66259Z" fill="white"/>
<path d="M53.2267 19.8275C52.6046 19.8275 52.0524 19.7238 51.57 19.5164C51.0918 19.3049 50.7131 18.9875 50.4338 18.5643C50.1587 18.1369 50.0212 17.6016 50.0212 16.9584C50.0212 16.4167 50.1164 15.9597 50.3068 15.5873C50.4972 15.2149 50.7596 14.9123 51.0939 14.6796C51.4282 14.4468 51.8133 14.2712 52.2492 14.1527C52.685 14.03 53.1505 13.9475 53.6456 13.9052C54.2 13.8544 54.6464 13.8015 54.985 13.7465C55.3235 13.6872 55.569 13.6047 55.7213 13.4989C55.8779 13.3889 55.9562 13.2345 55.9562 13.0356V13.0038C55.9562 12.678 55.844 12.4262 55.6197 12.2485C55.3955 12.0707 55.0929 11.9819 54.712 11.9819C54.3016 11.9819 53.9715 12.0707 53.7218 12.2485C53.4721 12.4262 53.3135 12.6716 53.2457 12.9848L50.383 12.8832C50.4676 12.2908 50.6856 11.7618 51.0368 11.2963C51.3923 10.8266 51.8789 10.4584 52.4967 10.1918C53.1188 9.92102 53.8657 9.7856 54.7374 9.7856C55.3595 9.7856 55.9329 9.85965 56.4576 10.0078C56.9824 10.1516 57.4394 10.3632 57.8287 10.6425C58.218 10.9176 58.5185 11.2561 58.7301 11.6581C58.9459 12.0602 59.0538 12.5193 59.0538 13.0356V19.6624H56.1339V18.3041H56.0577C55.8842 18.6341 55.6621 18.9134 55.3912 19.1419C55.1246 19.3705 54.8094 19.5418 54.4454 19.6561C54.0857 19.7703 53.6795 19.8275 53.2267 19.8275ZM54.1852 17.7963C54.5195 17.7963 54.8199 17.7285 55.0865 17.5931C55.3574 17.4577 55.5732 17.2715 55.734 17.0345C55.8948 16.7933 55.9752 16.514 55.9752 16.1967V15.2699C55.8863 15.3165 55.7784 15.3588 55.6515 15.3969C55.5288 15.4349 55.3933 15.4709 55.2452 15.5048C55.0971 15.5386 54.9448 15.5682 54.7882 15.5936C54.6316 15.619 54.4814 15.6423 54.3375 15.6635C54.0455 15.71 53.7959 15.782 53.5885 15.8793C53.3854 15.9766 53.2288 16.1036 53.1188 16.2601C53.013 16.4125 52.9601 16.5944 52.9601 16.806C52.9601 17.1276 53.0744 17.3731 53.3029 17.5423C53.5356 17.7116 53.8297 17.7963 54.1852 17.7963Z" fill="white"/>
<path d="M69.4638 12.8896L66.6138 12.9657C66.5841 12.7626 66.5037 12.5828 66.3725 12.4262C66.2414 12.2654 66.07 12.1406 65.8584 12.0517C65.651 11.9586 65.4098 11.912 65.1348 11.912C64.7751 11.912 64.4683 11.984 64.2144 12.1279C63.9647 12.2717 63.842 12.4664 63.8462 12.7118C63.842 12.9023 63.9181 13.0673 64.0747 13.2069C64.2355 13.3466 64.5212 13.4587 64.9316 13.5434L66.8105 13.8988C67.7838 14.085 68.5074 14.3939 68.9814 14.8256C69.4596 15.2572 69.7008 15.8285 69.705 16.5394C69.7008 17.208 69.5019 17.7899 69.1084 18.285C68.719 18.7801 68.1858 19.1652 67.5088 19.4403C66.8317 19.7111 66.0573 19.8465 65.1855 19.8465C63.7933 19.8465 62.6952 19.5609 61.8912 18.9896C61.0914 18.4141 60.6343 17.6439 60.5201 16.6791L63.586 16.6029C63.6537 16.9584 63.8293 17.2292 64.1128 17.4154C64.3963 17.6016 64.7581 17.6947 65.1982 17.6947C65.596 17.6947 65.9198 17.6206 66.1694 17.4725C66.4191 17.3244 66.546 17.1276 66.5503 16.8822C66.546 16.6621 66.4487 16.4865 66.2583 16.3553C66.0679 16.2199 65.7695 16.1141 65.3633 16.038L63.6621 15.7142C62.6846 15.5365 61.9567 15.2086 61.4786 14.7304C61.0004 14.248 60.7634 13.6344 60.7676 12.8896C60.7634 12.2379 60.9369 11.6814 61.2881 11.2202C61.6394 10.7547 62.1387 10.3992 62.7862 10.1538C63.4336 9.90832 64.1974 9.7856 65.0776 9.7856C66.3979 9.7856 67.4389 10.0628 68.2006 10.6171C68.9624 11.1673 69.3834 11.9247 69.4638 12.8896Z" fill="white"/>
<path d="M76.7366 9.91255V12.1977H70.5858V9.91255H76.7366ZM71.8743 7.57664H74.9783V16.5966C74.9783 16.787 75.0079 16.9414 75.0671 17.0599C75.1306 17.1742 75.2216 17.2567 75.3401 17.3075C75.4586 17.354 75.6003 17.3773 75.7654 17.3773C75.8839 17.3773 76.0087 17.3667 76.1399 17.3456C76.2753 17.3202 76.3769 17.299 76.4446 17.2821L76.9143 19.5228C76.7662 19.5651 76.5567 19.618 76.2859 19.6815C76.0193 19.745 75.6998 19.7852 75.3274 19.8021C74.5995 19.8359 73.9754 19.7513 73.4549 19.5482C72.9386 19.3408 72.5429 19.0192 72.2679 18.5834C71.997 18.1475 71.8658 17.5995 71.8743 16.9393V7.57664Z" fill="white"/>
<path d="M82.7731 19.8465C81.7533 19.8465 80.8731 19.6455 80.1325 19.2435C79.3962 18.8373 78.8291 18.2596 78.4314 17.5106C78.0378 16.7574 77.841 15.8624 77.841 14.8256C77.841 13.8184 78.0399 12.9382 78.4377 12.185C78.8355 11.4275 79.3962 10.8393 80.1198 10.4204C80.8434 9.99719 81.6961 9.7856 82.6779 9.7856C83.3719 9.7856 84.0067 9.89351 84.5822 10.1093C85.1577 10.3251 85.6549 10.6446 86.0738 11.0678C86.4928 11.491 86.8186 12.0136 87.0514 12.6357C87.2841 13.2535 87.4005 13.9623 87.4005 14.7621V15.5365H78.9265V13.7338H84.5123C84.5081 13.4037 84.4298 13.1096 84.2775 12.8515C84.1251 12.5933 83.9157 12.3923 83.6491 12.2485C83.3867 12.1004 83.0841 12.0263 82.7414 12.0263C82.3944 12.0263 82.0833 12.1046 81.8083 12.2612C81.5332 12.4135 81.3153 12.623 81.1545 12.8896C80.9937 13.1519 80.909 13.4503 80.9006 13.7846V15.619C80.9006 16.0168 80.9789 16.3659 81.1354 16.6664C81.292 16.9626 81.5142 17.1932 81.8019 17.3583C82.0897 17.5233 82.4325 17.6058 82.8302 17.6058C83.1053 17.6058 83.355 17.5677 83.5793 17.4916C83.8035 17.4154 83.9961 17.3033 84.1569 17.1551C84.3177 17.007 84.4383 16.8251 84.5187 16.6093L87.3688 16.6918C87.2503 17.3308 86.99 17.8872 86.588 18.3612C86.1902 18.8309 85.6676 19.1969 85.0201 19.4593C84.3727 19.7175 83.6237 19.8465 82.7731 19.8465Z" fill="white"/>
<path d="M88.9858 19.6624V9.91255H92.0009V11.6899H92.1025C92.2802 11.0467 92.5701 10.5685 92.9721 10.2553C93.3741 9.93794 93.8417 9.77925 94.3749 9.77925C94.5188 9.77925 94.6669 9.78983 94.8192 9.81099C94.9716 9.82792 95.1133 9.85542 95.2445 9.89351V12.5912C95.0964 12.5405 94.9017 12.5002 94.6605 12.4706C94.4236 12.441 94.212 12.4262 94.0258 12.4262C93.6576 12.4262 93.3254 12.5087 93.0292 12.6738C92.7372 12.8346 92.5066 13.061 92.3373 13.3529C92.1723 13.6407 92.0898 13.9792 92.0898 14.3686V19.6624H88.9858Z" fill="white"/>
<path d="M96.5093 19.6624V9.91255H99.6132V19.6624H96.5093ZM98.0644 8.77633C97.6286 8.77633 97.2541 8.63246 96.9409 8.3447C96.6278 8.05271 96.4712 7.70148 96.4712 7.291C96.4712 6.88475 96.6278 6.53775 96.9409 6.25C97.2541 5.95801 97.6286 5.81201 98.0644 5.81201C98.5045 5.81201 98.879 5.95801 99.188 6.25C99.5011 6.53775 99.6577 6.88475 99.6577 7.291C99.6577 7.70148 99.5011 8.05271 99.188 8.3447C98.879 8.63246 98.5045 8.77633 98.0644 8.77633Z" fill="white"/>
<path d="M104.693 14.102V19.6624H101.589V9.91255H104.541V11.7026H104.648C104.864 11.1059 105.232 10.6383 105.753 10.2998C106.273 9.95698 106.893 9.7856 107.613 9.7856C108.298 9.7856 108.893 9.94006 109.396 10.249C109.904 10.5537 110.298 10.9811 110.577 11.5312C110.861 12.0771 111 12.7161 110.996 13.4482V19.6624H107.892V14.0575C107.896 13.5159 107.759 13.0927 107.479 12.788C107.204 12.4833 106.821 12.331 106.331 12.331C106.005 12.331 105.717 12.4029 105.467 12.5468C105.222 12.6864 105.031 12.8875 104.896 13.1498C104.765 13.4122 104.697 13.7296 104.693 14.102Z" fill="white"/>
<path d="M117.463 23.5218C116.536 23.5218 115.742 23.3927 115.082 23.1346C114.422 22.8764 113.904 22.5231 113.527 22.0745C113.151 21.626 112.924 21.1182 112.848 20.5511L115.787 20.3861C115.842 20.585 115.943 20.7585 116.092 20.9066C116.244 21.0547 116.441 21.1689 116.682 21.2493C116.927 21.3297 117.215 21.3699 117.545 21.3699C118.066 21.3699 118.495 21.243 118.834 20.9891C119.176 20.7394 119.348 20.3014 119.348 19.6751V17.9613H119.24C119.117 18.2617 118.931 18.5305 118.681 18.7674C118.432 19.0044 118.121 19.1906 117.748 19.326C117.38 19.4614 116.957 19.5291 116.479 19.5291C115.768 19.5291 115.116 19.3641 114.524 19.034C113.936 18.6997 113.464 18.1835 113.108 17.4852C112.757 16.7828 112.581 15.8793 112.581 14.7748C112.581 13.6365 112.763 12.6991 113.127 11.9628C113.491 11.2223 113.967 10.6743 114.555 10.3188C115.148 9.96333 115.785 9.7856 116.466 9.7856C116.978 9.7856 117.416 9.87447 117.78 10.0522C118.148 10.2257 118.451 10.45 118.688 10.725C118.925 11.0001 119.105 11.2857 119.227 11.582H119.316V9.91255H122.407V19.7005C122.407 20.5257 122.2 21.2218 121.785 21.7889C121.371 22.3559 120.791 22.7854 120.046 23.0774C119.301 23.3737 118.44 23.5218 117.463 23.5218ZM117.558 17.2694C117.934 17.2694 118.256 17.17 118.523 16.9711C118.789 16.7722 118.995 16.4865 119.138 16.1141C119.282 15.7417 119.354 15.2953 119.354 14.7748C119.354 14.2458 119.282 13.7909 119.138 13.4101C118.999 13.025 118.794 12.7288 118.523 12.5214C118.256 12.3141 117.934 12.2104 117.558 12.2104C117.173 12.2104 116.847 12.3162 116.58 12.5278C116.314 12.7393 116.111 13.0377 115.971 13.4228C115.836 13.8036 115.768 14.2543 115.768 14.7748C115.768 15.2953 115.838 15.7417 115.977 16.1141C116.117 16.4865 116.318 16.7722 116.58 16.9711C116.847 17.17 117.173 17.2694 117.558 17.2694Z" fill="white"/>
</g>
<g id="Mastering Pinia_2">
<path d="M126.439 19.6624V6.66259H131.81C132.783 6.66259 133.623 6.85302 134.329 7.23387C135.04 7.61049 135.588 8.13734 135.974 8.81442C136.359 9.48726 136.551 10.2701 136.551 11.163C136.551 12.0602 136.354 12.8451 135.961 13.518C135.572 14.1866 135.015 14.705 134.291 15.0731C133.568 15.4413 132.709 15.6254 131.714 15.6254H128.401V13.1498H131.13C131.604 13.1498 132 13.0673 132.317 12.9023C132.639 12.7372 132.882 12.5066 133.047 12.2104C133.212 11.9099 133.295 11.5608 133.295 11.163C133.295 10.761 133.212 10.414 133.047 10.122C132.882 9.8258 132.639 9.59729 132.317 9.43648C131.996 9.27568 131.6 9.19527 131.13 9.19527H129.582V19.6624H126.439Z" fill="#FFE56D"/>
<path d="M138.1 19.6624V9.91255H141.204V19.6624H138.1ZM139.655 8.77633C139.219 8.77633 138.845 8.63246 138.532 8.3447C138.218 8.05271 138.062 7.70148 138.062 7.291C138.062 6.88475 138.218 6.53775 138.532 6.25C138.845 5.95801 139.219 5.81201 139.655 5.81201C140.095 5.81201 140.47 5.95801 140.779 6.25C141.092 6.53775 141.248 6.88475 141.248 7.291C141.248 7.70148 141.092 8.05271 140.779 8.3447C140.47 8.63246 140.095 8.77633 139.655 8.77633Z" fill="#FFE56D"/>
<path d="M146.284 14.102V19.6624H143.18V9.91255H146.131V11.7026H146.239C146.455 11.1059 146.823 10.6383 147.344 10.2998C147.864 9.95698 148.484 9.7856 149.203 9.7856C149.889 9.7856 150.484 9.94006 150.987 10.249C151.495 10.5537 151.889 10.9811 152.168 11.5312C152.451 12.0771 152.591 12.7161 152.587 13.4482V19.6624H149.483V14.0575C149.487 13.5159 149.349 13.0927 149.07 12.788C148.795 12.4833 148.412 12.331 147.921 12.331C147.595 12.331 147.308 12.4029 147.058 12.5468C146.813 12.6864 146.622 12.8875 146.487 13.1498C146.356 13.4122 146.288 13.7296 146.284 14.102Z" fill="#FFE56D"/>
<path d="M154.508 19.6624V9.91255H157.612V19.6624H154.508ZM156.064 8.77633C155.628 8.77633 155.253 8.63246 154.94 8.3447C154.627 8.05271 154.47 7.70148 154.47 7.291C154.47 6.88475 154.627 6.53775 154.94 6.25C155.253 5.95801 155.628 5.81201 156.064 5.81201C156.504 5.81201 156.878 5.95801 157.187 6.25C157.5 6.53775 157.657 6.88475 157.657 7.291C157.657 7.70148 157.5 8.05271 157.187 8.3447C156.878 8.63246 156.504 8.77633 156.064 8.77633Z" fill="#FFE56D"/>
<path d="M162.337 19.8275C161.715 19.8275 161.162 19.7238 160.68 19.5164C160.202 19.3049 159.823 18.9875 159.544 18.5643C159.269 18.1369 159.131 17.6016 159.131 16.9584C159.131 16.4167 159.226 15.9597 159.417 15.5873C159.607 15.2149 159.87 14.9123 160.204 14.6796C160.538 14.4468 160.923 14.2712 161.359 14.1527C161.795 14.03 162.26 13.9475 162.756 13.9052C163.31 13.8544 163.756 13.8015 164.095 13.7465C164.433 13.6872 164.679 13.6047 164.831 13.4989C164.988 13.3889 165.066 13.2345 165.066 13.0356V13.0038C165.066 12.678 164.954 12.4262 164.73 12.2485C164.505 12.0707 164.203 11.9819 163.822 11.9819C163.411 11.9819 163.081 12.0707 162.832 12.2485C162.582 12.4262 162.423 12.6716 162.356 12.9848L159.493 12.8832C159.578 12.2908 159.795 11.7618 160.147 11.2963C160.502 10.8266 160.989 10.4584 161.607 10.1918C162.229 9.92102 162.976 9.7856 163.847 9.7856C164.469 9.7856 165.043 9.85965 165.568 10.0078C166.092 10.1516 166.549 10.3632 166.939 10.6425C167.328 10.9176 167.628 11.2561 167.84 11.6581C168.056 12.0602 168.164 12.5193 168.164 13.0356V19.6624H165.244V18.3041H165.168C164.994 18.6341 164.772 18.9134 164.501 19.1419C164.235 19.3705 163.919 19.5418 163.555 19.6561C163.196 19.7703 162.789 19.8275 162.337 19.8275ZM163.295 17.7963C163.629 17.7963 163.93 17.7285 164.196 17.5931C164.467 17.4577 164.683 17.2715 164.844 17.0345C165.005 16.7933 165.085 16.514 165.085 16.1967V15.2699C164.996 15.3165 164.888 15.3588 164.761 15.3969C164.639 15.4349 164.503 15.4709 164.355 15.5048C164.207 15.5386 164.055 15.5682 163.898 15.5936C163.742 15.619 163.591 15.6423 163.447 15.6635C163.155 15.71 162.906 15.782 162.698 15.8793C162.495 15.9766 162.339 16.1036 162.229 16.2601C162.123 16.4125 162.07 16.5944 162.07 16.806C162.07 17.1276 162.184 17.3731 162.413 17.5423C162.646 17.7116 162.94 17.7963 163.295 17.7963Z" fill="#FFE56D"/>
</g>
</g>
</g>
<defs>
<linearGradient id="paint0_linear_273_1952" x1="11.3088" y1="6.07324" x2="11.3088" y2="26.0002" gradientUnits="userSpaceOnUse">
<stop stop-color="#FFE66D"/>
<stop offset="1" stop-color="#FFD66D"/>
</linearGradient>
<linearGradient id="paint1_linear_273_1952" x1="16.5051" y1="6.60844" x2="4.27047" y2="7.94943" gradientUnits="userSpaceOnUse">
<stop stop-color="#7C879C"/>
<stop offset="1" stop-color="#626D83"/>
</linearGradient>
</defs>
</svg>
