<svg width="144" height="28" viewBox="0 0 144 28" fill="none" xmlns="http://www.w3.org/2000/svg">
<path d="M0.857614 0.175537H4.37432C5.1235 0.175429 5.84385 0.464891 6.38527 0.983617L17.1752 11.3265V19.0502L6.54545 8.95003V27.4133L0.950439 21.8085C0.341109 21.1982 -0.000839331 20.3701 1.54717e-06 19.5069L0.0205382 1.01324C0.0209916 0.550457 0.39563 0.175537 0.857614 0.175537Z" fill="#00DC82"/>
<path d="M22.863 27.8244H19.3463C18.5963 27.8251 17.875 27.5356 17.3329 27.0163L6.54541 16.6734V8.94972L17.1752 19.0499V0.58667L22.7702 6.19139C23.3801 6.80235 23.7221 7.63144 23.7207 8.49549L23.7001 26.9892C23.6983 27.451 23.3241 27.8244 22.863 27.8244Z" fill="white"/>
<path fill-rule="evenodd" clip-rule="evenodd" d="M35.4389 11.7187V21.8898H32.2529V6.4314H35.4389L41.6517 16.6237V6.4314H44.8271V21.8898H41.641L35.4389 11.7187ZM54.2895 20.7216C53.532 21.6417 52.4841 22.1018 51.146 22.1018C49.9141 22.1018 48.9742 21.7479 48.3264 21.0401C47.6786 20.3323 47.3476 19.2954 47.3334 17.9293V10.4019H50.4026V17.8232C50.4026 19.0193 50.9478 19.6174 52.0381 19.6174C53.0789 19.6174 53.7939 19.2565 54.1833 18.5345V10.4019H57.2632V21.8895H54.3745L54.2895 20.7216ZM61.9255 21.8895L63.9645 18.2797L66.0142 21.8895H69.3064L65.8974 16.0289L69.1684 10.4019H65.8868L63.9539 13.8312L62.0635 10.4019H58.7713L62.0317 16.0289L58.6227 21.8895H61.9255ZM76.4003 21.8258C75.7985 22.0099 75.179 22.1019 74.5418 22.1019C72.3895 22.1019 71.2921 21.0154 71.2496 18.8425V12.6528H69.5716V10.402H71.2496V7.57783H74.3188V10.402H76.2835V12.6528H74.3188V18.3859C74.3188 18.8106 74.4002 19.115 74.563 19.299C74.7259 19.483 75.0374 19.575 75.4976 19.575C75.8374 19.575 76.1383 19.5503 76.4003 19.5007V21.8258Z" fill="white"/>
<path fill-rule="evenodd" clip-rule="evenodd" d="M119.026 8.57635C118.711 8.87362 118.295 9.02226 117.779 9.02226C117.262 9.02226 116.846 8.87362 116.531 8.57635C116.216 8.27907 116.058 7.89686 116.058 7.42971C116.058 6.96964 116.212 6.59097 116.52 6.29369C116.828 5.99642 117.248 5.84778 117.779 5.84778C118.302 5.84778 118.72 5.99642 119.032 6.29369C119.343 6.59097 119.499 6.96964 119.499 7.42971C119.499 7.89686 119.341 8.27907 119.026 8.57635ZM85.1006 21.8897V11.7187L91.3027 21.8897H94.4887V6.43139H91.3133V16.6237L85.1006 6.43139H81.9146V21.8897H85.1006ZM100.521 22.102C101.71 22.102 102.677 21.688 103.42 20.8598C103.484 21.2704 103.586 21.6136 103.728 21.8897H106.829V21.7092C106.532 21.15 106.379 20.3254 106.372 19.2354V14.2561C106.372 12.9679 105.956 11.9681 105.124 11.2568C104.293 10.5454 103.169 10.1898 101.753 10.1898C100.818 10.1898 99.9755 10.3508 99.2251 10.6728C98.4746 10.9949 97.894 11.439 97.4834 12.0053C97.0727 12.5715 96.8674 13.1873 96.8674 13.8526H99.9366C99.9366 13.4209 100.084 13.0811 100.377 12.8334C100.671 12.5857 101.076 12.4618 101.593 12.4618C102.181 12.4618 102.611 12.621 102.884 12.9396C103.156 13.2581 103.293 13.6827 103.293 14.2136V14.8718H101.88C100.174 14.8789 98.8693 15.2081 97.9666 15.8592C97.0639 16.5104 96.6125 17.4447 96.6125 18.6621C96.6125 19.653 96.9825 20.4741 97.7223 21.1253C98.4622 21.7764 99.395 22.102 100.521 22.102ZM100.086 19.3842C100.355 19.6319 100.723 19.7558 101.19 19.7558C101.643 19.7558 102.061 19.6549 102.444 19.4532C102.826 19.2515 103.109 18.9807 103.293 18.641V16.6662H102.146C100.61 16.6662 99.7921 17.1971 99.6929 18.2588L99.6823 18.4393C99.6823 18.8215 99.8168 19.1364 100.086 19.3842ZM112.628 22.1023C113.265 22.1023 113.885 22.0103 114.486 21.8263V19.5012C114.224 19.5507 113.923 19.5755 113.584 19.5755C113.123 19.5755 112.812 19.4835 112.649 19.2994C112.486 19.1154 112.405 18.811 112.405 18.3864V12.6532H114.37V10.4024H112.405V7.57826H109.336V10.4024H107.658V12.6532H109.336V18.8429C109.378 21.0158 110.476 22.1023 112.628 22.1023ZM119.319 21.8899V10.4023H116.239V21.8899H119.319ZM130.778 20.5042C129.794 21.5694 128.473 22.102 126.816 22.102C125.16 22.102 123.838 21.5712 122.85 20.5095C121.862 19.4478 121.368 18.0039 121.368 16.1777V16.0397C121.368 14.9002 121.588 13.8845 122.027 12.9926C122.466 12.1008 123.098 11.4107 123.922 10.9223C124.747 10.4339 125.705 10.1898 126.795 10.1898C128.346 10.1898 129.611 10.664 130.592 11.6124C131.572 12.5609 132.119 13.8491 132.233 15.477L132.254 16.2627C132.254 18.0251 131.762 19.4389 130.778 20.5042ZM126.816 19.628C126.052 19.628 125.464 19.3396 125.053 18.7627C124.643 18.1859 124.437 17.3524 124.437 16.2624C124.437 15.0379 124.643 14.1337 125.053 13.5498C125.464 12.9658 126.044 12.6739 126.795 12.6739C127.552 12.6739 128.14 12.9676 128.558 13.5551C128.976 14.1425 129.184 14.9707 129.184 16.0395C129.184 17.2923 128.976 18.2036 128.558 18.7733C128.14 19.3431 127.56 19.628 126.816 19.628ZM137.15 13.7889V21.8897H134.08V10.4021H136.969L137.065 11.7292C137.886 10.7029 138.987 10.1898 140.367 10.1898C141.585 10.1898 142.492 10.5472 143.086 11.2621C143.681 11.9769 143.985 13.0457 144 14.4684V21.8897H140.93V14.5427C140.93 13.8915 140.789 13.4191 140.506 13.1254C140.222 12.8316 139.752 12.6847 139.093 12.6847C138.229 12.6847 137.582 13.0528 137.15 13.7889Z" fill="#00DC82"/>
</svg>
