<svg width="24" height="28" viewBox="0 0 24 28" fill="none" xmlns="http://www.w3.org/2000/svg">
<path d="M0.857614 0.175537H4.37432C5.1235 0.175429 5.84385 0.464891 6.38527 0.983617L17.1752 11.3265V19.0502L6.54545 8.95003V27.4133L0.950439 21.8085C0.341109 21.1982 -0.000839331 20.3701 1.54717e-06 19.5069L0.0205382 1.01324C0.0209916 0.550457 0.39563 0.175537 0.857614 0.175537Z" fill="#00DC82"/>
<path d="M22.863 27.8244H19.3463C18.5963 27.8251 17.875 27.5356 17.3329 27.0163L6.54541 16.6734V8.94972L17.1752 19.0499V0.58667L22.7702 6.19139C23.3801 6.80235 23.7221 7.63144 23.7207 8.49549L23.7001 26.9892C23.6983 27.451 23.3241 27.8244 22.863 27.8244Z" fill="white"/>
</svg>
