<svg width="45" height="44" viewBox="0 0 45 44" fill="none" xmlns="http://www.w3.org/2000/svg">
<path d="M2.35175 17.6616C1.44555 18.3236 1.26135 19.6015 1.9437 20.4925L2.16752 20.7848C2.71724 21.5026 2.71703 22.4999 2.16702 23.2175L1.9449 23.5073C1.26198 24.3983 1.44597 25.6767 2.35244 26.3389L2.64189 26.5504C3.37318 27.0846 3.6542 28.0436 3.3269 28.8881L3.1955 29.2271C2.78914 30.2756 3.32667 31.4528 4.38508 31.8325L4.71091 31.9493C5.56496 32.2557 6.1058 33.0986 6.02836 34.0026L5.9978 34.3594C5.9017 35.4814 6.75044 36.4615 7.87465 36.5267L8.21007 36.5462C9.11708 36.5988 9.87466 37.2562 10.0546 38.1467L10.1237 38.4887C10.3471 39.5945 11.4404 40.2968 12.539 40.0402L12.8577 39.9657C13.7449 39.7585 14.66 40.1771 15.0834 40.9838L15.2388 41.2798C15.7642 42.2808 17.0142 42.6477 17.9973 42.0894L18.2769 41.9307C19.0701 41.4802 20.0677 41.6236 20.702 42.2792L20.9291 42.514C21.7151 43.3266 23.018 43.3266 23.804 42.514L24.0311 42.2793C24.6654 41.6236 25.6629 41.4802 26.4562 41.9307L26.7358 42.0894C27.7189 42.6477 28.9689 42.2808 29.4943 41.2798L29.6497 40.9838C30.0731 40.1771 30.9882 39.7585 31.8754 39.9657L32.1941 40.0402C33.2927 40.2968 34.3859 39.5945 34.6094 38.4887L34.6785 38.1467C34.8584 37.2562 35.616 36.5988 36.523 36.5462L36.8584 36.5267C37.9826 36.4615 38.8314 35.4814 38.7353 34.3594L38.7047 34.0026C38.6273 33.0986 39.1681 32.2557 40.0222 31.9493L40.348 31.8325C41.4064 31.4528 41.9439 30.2756 41.5376 29.2271L41.4062 28.8881C41.0789 28.0436 41.3599 27.0846 42.0912 26.5504L42.3806 26.3389C43.2871 25.6767 43.4711 24.3983 42.7882 23.5073L42.5661 23.2175C42.0161 22.4999 42.0158 21.5026 42.5656 20.7848L42.7894 20.4925C43.4717 19.6015 43.2875 18.3236 42.3813 17.6616L42.0912 17.4496C41.3599 16.9154 41.0789 15.9564 41.4062 15.1119L41.5376 14.7729C41.9439 13.7244 41.4064 12.5472 40.348 12.1675L40.0222 12.0506C39.1681 11.7443 38.6273 10.9014 38.7047 9.9974L38.7352 9.64204C38.8313 8.51951 37.9817 7.53912 36.8569 7.47463L36.5242 7.45555C35.6166 7.40352 34.8583 6.74598 34.6783 5.85494L34.6091 5.51264C34.3858 4.40737 33.2934 3.70513 32.1951 3.96087L31.8741 4.03562C30.9875 4.24208 30.0733 3.82373 29.6499 3.01781L29.494 2.72092C28.9686 1.72073 27.7196 1.35395 26.7368 1.91126L26.4558 2.07062C25.6627 2.52039 24.6657 2.37678 24.0318 1.72144L23.804 1.48599C23.018 0.673397 21.7151 0.673397 20.9291 1.48599L20.7013 1.72144C20.0673 2.37678 19.0704 2.52039 18.2772 2.07062L17.9962 1.91126C17.0135 1.35395 15.7645 1.72073 15.2391 2.72092L15.0831 3.01781C14.6598 3.82373 13.7456 4.24208 12.859 4.03562L12.538 3.96087C11.4397 3.70514 10.3473 4.40737 10.124 5.51264L10.0548 5.85494C9.87477 6.74598 9.11647 7.40352 8.20892 7.45555L7.87615 7.47463C6.75135 7.53912 5.90177 8.51951 5.99792 9.64204L6.02836 9.9974C6.1058 10.9014 5.56496 11.7443 4.71091 12.0506L4.38507 12.1675C3.32667 12.5472 2.78914 13.7244 3.1955 14.7729L3.3269 15.1119C3.6542 15.9564 3.37319 16.9154 2.64189 17.4496L2.35175 17.6616Z" fill="#00DC82"/>
<path d="M23.6306 29.1624H33.3667C33.6761 29.1624 33.9799 29.0809 34.2475 28.9262C34.5156 28.7711 34.7379 28.5484 34.8923 28.2805C35.0469 28.0121 35.1281 27.708 35.128 27.3985C35.1279 27.089 35.0463 26.785 34.8915 26.5167L28.353 15.1777C28.1987 14.9098 27.9764 14.6872 27.7084 14.5322C27.4408 14.3774 27.137 14.2959 26.8277 14.2959C26.5184 14.2959 26.2146 14.3774 25.9471 14.5322C25.6791 14.6872 25.4567 14.9098 25.3025 15.1777L23.6306 18.079L20.3618 12.4057C20.2074 12.1378 19.985 11.9152 19.7169 11.7602C19.4493 11.6055 19.1454 11.524 18.8361 11.5239C18.5267 11.524 18.2229 11.6055 17.9552 11.7602C17.6872 11.9152 17.4647 12.1378 17.3103 12.4057L9.17399 26.5167C9.01915 26.785 8.9376 27.089 8.9375 27.3985C8.93733 27.708 9.0186 28.0121 9.17321 28.2805C9.32753 28.5484 9.5499 28.7711 9.81795 28.9262C10.0855 29.0809 10.3894 29.1624 10.6988 29.1624H16.8103C19.2317 29.1624 21.0175 28.0975 22.2462 26.0199L25.2294 20.8472L26.8273 18.079L31.6227 26.3942H25.2294L23.6306 29.1624ZM16.7154 26.3904H12.4456L18.8389 15.3041L22.0289 20.8472L19.8931 24.5521C19.0771 25.9002 18.1501 26.3913 16.7107 26.3913" fill="#020420"/>
</svg>
