<svg width="163" height="28" viewBox="0 0 163 28" fill="none" xmlns="http://www.w3.org/2000/svg">
<g id="Asset 1">
<path id="Combined Shape" fill-rule="evenodd" clip-rule="evenodd" d="M84.1391 3.83232C83.3 4.24463 82.7991 5.12988 82.877 6.06266C82.8859 6.64606 83.1343 7.20003 83.5637 7.59429C83.9932 7.98855 84.5658 8.1883 85.1469 8.14656C86.0816 8.1433 86.9187 7.56664 87.256 6.69368C87.5933 5.82073 87.3619 4.82994 86.6729 4.19743C85.9839 3.56493 84.9782 3.42001 84.1391 3.83232ZM83.0433 19.6193C83.0433 20.4604 82.6499 20.7939 81.7646 20.8393V23.7795C86.0246 23.7795 87.1747 22.1427 87.1747 19.7027V9.0104H83.0433V19.6193ZM40.5039 4.94101H35.3662L40.3147 19.9602H45.687L50.5296 4.94101H46.0805L43.296 14.9967L40.5039 4.94101ZM50.7861 8.97245V16.1789C50.7861 18.9448 52.36 20.233 54.4559 20.233C55.9116 20.3521 57.2919 19.5677 57.9365 18.2552V19.9602H62.0679V8.97245H57.9365V15.2317C57.9365 16.5351 57.2707 17.1413 56.3022 17.1413C55.3337 17.1413 54.9175 16.573 54.9175 15.459V8.97245H50.7861ZM63.499 14.4361V14.6029C63.499 18.2326 66.117 20.2483 69.5749 20.2483C73.0328 20.2483 74.9699 18.7782 75.3028 16.2548H71.4439C71.3228 16.8838 70.8764 17.4294 69.7262 17.4294C69.1742 17.4554 68.6366 17.2477 68.2451 16.8571C67.8535 16.4664 67.6441 15.9288 67.6681 15.3758H75.2574V14.3679C75.2574 10.4199 72.6394 8.6543 69.5522 8.6543C66.2229 8.6543 63.499 10.8594 63.499 14.4361ZM69.5754 11.3215C70.6876 11.3215 71.2551 12.0338 71.3005 13.216H67.6913C67.8577 11.9732 68.4631 11.3215 69.5754 11.3215ZM78.7299 15.6636C77.4763 15.6636 76.46 16.6814 76.46 17.9369C76.46 19.1924 77.4763 20.2102 78.7299 20.2102C79.9836 20.2102 80.9999 19.1924 80.9999 17.9369C80.9999 16.6814 79.9836 15.6636 78.7299 15.6636ZM92.4112 16.4289H88.6279C88.6884 18.9448 90.6936 20.2557 93.7959 20.2557C96.8981 20.2557 98.9562 19.0963 98.9562 16.391C98.9562 14.0116 97.4883 13.2614 94.3179 12.8825C93.0997 12.7537 92.6003 12.4658 92.6003 12.0414C92.6003 11.617 92.9333 11.2836 93.6899 11.2836C93.9908 11.252 94.2917 11.3438 94.5241 11.5379C94.7564 11.732 94.9004 12.012 94.9233 12.3142H98.6385C98.3888 9.62408 96.4744 8.67686 93.6218 8.67686C90.9433 8.67686 88.7414 9.87415 88.7414 12.3976C88.7414 14.7467 90.0353 15.5499 92.9938 15.8833C94.4617 16.05 94.9233 16.3683 94.9233 16.8078C94.9233 17.2473 94.5298 17.5656 93.7732 17.5656C93.4374 17.6206 93.0943 17.5269 92.833 17.3088C92.5716 17.0906 92.4177 16.7696 92.4112 16.4289Z" fill="#FF5323"/>
<path id="Combined Shape_2" fill-rule="evenodd" clip-rule="evenodd" d="M104.526 4.9408H114.908V8.61602H109.286V11.4047H113.826V14.9132H109.286V19.96H104.526V4.9408ZM115.513 14.436V14.6027C115.513 18.187 118.169 20.233 121.589 20.233C125.009 20.233 127.695 18.1112 127.695 14.4966V14.3299C127.695 10.7986 125.107 8.67684 121.642 8.67684C118.176 8.67684 115.513 10.8592 115.513 14.436ZM123.526 14.3979V14.5191H123.488C123.488 16.262 122.966 17.2168 121.642 17.2168C120.317 17.2168 119.689 16.2923 119.689 14.504V14.3373C119.689 12.6171 120.363 11.7533 121.642 11.7533C122.92 11.7533 123.526 12.6777 123.526 14.3979ZM133.264 8.97227H129.133V19.9601H133.264V14.8981C133.264 13.3219 134.52 12.5641 136.79 12.6854V8.82071C135.208 8.70544 133.751 9.68808 133.264 11.2001V8.97227ZM141.716 19.8766H137.63C137.925 22.4758 139.726 24.0293 143.471 24.0293C147.557 24.0293 149.721 22.2864 149.721 19.0128V8.93431H145.59V10.4499C144.932 9.2261 143.613 8.50897 142.23 8.62362C139.764 8.62362 137.69 10.6317 137.69 13.9281V14.0948C137.69 17.4972 139.786 19.3083 142.283 19.3083C143.671 19.3481 144.962 18.6003 145.62 17.376V19.0734C145.696 19.65 145.499 20.2289 145.089 20.6401C144.678 21.0513 144.1 21.248 143.524 21.1724C142.246 21.1724 141.867 20.5435 141.716 19.8766ZM145.779 13.9512V14.0951C145.779 15.4819 145.106 16.3912 143.85 16.3912C142.594 16.3912 141.92 15.5046 141.92 14.1633V13.9966C141.92 12.5872 142.609 11.7233 143.85 11.7233C145.091 11.7233 145.779 12.6023 145.779 13.9512ZM151.182 14.6028V14.4361C151.182 10.8594 153.906 8.65424 157.236 8.65424C160.323 8.65424 162.941 10.4199 162.941 14.3679V15.3757H155.352C155.328 15.9287 155.537 16.4663 155.929 16.857C156.32 17.2477 156.858 17.4554 157.41 17.4293C158.56 17.4293 159.006 16.8837 159.127 16.2548H162.986C162.653 18.7782 160.716 20.2483 157.258 20.2483C153.8 20.2483 151.182 18.2326 151.182 14.6028ZM158.985 13.2159C158.94 12.0338 158.372 11.3215 157.26 11.3215C156.147 11.3215 155.542 11.9732 155.376 13.2159H158.985Z" fill="#FDB92C"/>
<g id="Group 6">
<path id="Path" d="M14.6419 13.2611H15.8828L19.0078 7.87332H11.4942L10.049 5.39539H20.4379L23.5629 0H0.5L5.05507 7.87332H0.5L3.64769 13.2611H8.18006L16.7076 27.9999V16.8L14.6419 13.2611Z" fill="#FF5323"/>
<path id="Path_2" d="M16.707 16.8001V28.0001L32.9146 0.00012207H26.4376L16.707 16.8001Z" fill="#FDB92C"/>
</g>
</g>
</svg>
