<svg width="128" height="28" viewBox="0 0 128 28" fill="none" xmlns="http://www.w3.org/2000/svg">
<path fill-rule="evenodd" clip-rule="evenodd" d="M75.824 10.9326C75.6901 10.179 75.0718 9.00177 73.3373 9.00177C72.0472 9.00177 71.1987 9.8331 71.1987 10.7395C71.1987 11.4931 71.6805 12.0911 72.6815 12.2842L74.59 12.6516C77.0766 13.1343 78.4069 14.7568 78.4069 16.6876C78.4069 18.7928 76.6537 20.9167 73.4738 20.9167C69.8496 20.9167 68.2517 18.5809 68.0375 16.6286L70.5054 15.9716C70.6205 17.3232 71.5654 18.5407 73.4926 18.5407C74.9192 18.5407 75.7089 17.8273 75.7089 16.8619C75.7089 16.0708 75.112 15.4513 74.052 15.2395L72.1435 14.8533C69.9647 14.4081 68.5595 13.0002 68.5595 10.9326C68.5595 8.50029 70.7383 6.64453 73.3213 6.64453C76.6377 6.64453 77.9091 8.65314 78.2169 10.1978L75.8266 10.9326H75.824ZM39.9673 6.93403H42.7805L37.7109 20.6243H34.9753L29.9244 6.93403H32.834L36.3993 17.1112L39.9646 6.93403H39.9673ZM49.6244 19.6027C49.1052 20.4903 48.0051 20.8765 47.004 20.8765C44.7101 20.8765 43.3985 19.1977 43.3985 17.1301V11.1257H45.9628V16.6098C45.9628 17.6718 46.5034 18.5219 47.6972 18.5219C48.891 18.5219 49.4906 17.7496 49.4906 16.6501V11.1284H52.0549V18.9108C52.0549 19.6456 52.1137 20.2999 52.1512 20.6298H49.7047C49.6673 20.4367 49.6271 19.9915 49.6271 19.6053L49.6244 19.6027ZM58.9314 20.9139C61.2628 20.9139 62.7671 19.5435 63.2489 17.9023V17.8996L61.1103 17.2614C60.8024 18.1115 60.1467 18.7095 58.9529 18.7095C57.6814 18.7095 56.6215 17.8031 56.5626 16.548H63.348C63.348 16.5389 63.3502 16.5094 63.3535 16.4646L63.3535 16.4644C63.3639 16.3243 63.3854 16.0352 63.3854 15.7569C63.3854 12.7051 61.6295 10.8333 58.7013 10.8333C56.2708 10.8333 54.0358 12.8043 54.0358 15.8347C54.0358 19.042 56.3297 20.9139 58.9314 20.9139ZM58.7387 12.9223C60.2029 12.9223 60.8212 13.8475 60.8587 14.7942H56.6188C56.6777 13.9253 57.4084 12.9223 58.7387 12.9223ZM84.6674 18.5592C83.3586 18.5592 82.2397 17.5938 82.2397 15.8748H82.237C82.237 14.1559 83.3746 13.2092 84.646 13.2092C85.9175 13.2092 86.517 14.0218 86.7472 14.8129L89.0411 14.0405C88.637 12.4395 87.1728 10.8359 84.5898 10.8359C81.8329 10.8359 79.6755 12.9598 79.6755 15.8748C79.6755 18.7899 81.873 20.9138 84.6674 20.9138C87.1916 20.9138 88.6771 19.2914 89.1 17.7091L86.8463 16.9556C86.6321 17.6904 85.9763 18.5592 84.6674 18.5592ZM93.5541 20.6271H90.9899V6.64453H93.5541V11.9168C94.1697 11.182 95.211 10.8736 96.1184 10.8736C98.5274 10.8736 99.6462 12.5524 99.6462 14.6388V20.6244H97.082V15.0812C97.082 14.0193 96.5627 13.1879 95.3287 13.1879C94.25 13.1879 93.613 13.9978 93.5568 15.041V20.6217L93.5541 20.6271ZM106.504 20.9139C109.338 20.9139 111.477 18.79 111.477 15.875C111.477 12.9411 109.338 10.836 106.504 10.836C103.669 10.836 101.531 12.9599 101.531 15.875C101.531 18.79 103.669 20.9139 106.504 20.9139ZM106.504 13.1718C107.756 13.1718 108.913 14.0782 108.913 15.875C108.913 17.6717 107.756 18.5781 106.504 18.5781C105.251 18.5781 104.095 17.6717 104.095 15.875C104.095 14.0782 105.251 13.1718 106.504 13.1718ZM122.733 15.8748C122.733 18.7899 120.594 20.9138 117.759 20.9138C114.925 20.9138 112.786 18.7899 112.786 15.8748C112.786 12.9598 114.925 10.8359 117.759 10.8359C120.594 10.8359 122.733 12.941 122.733 15.8748ZM120.168 15.8748C120.168 14.0781 119.012 13.1717 117.759 13.1717C116.507 13.1717 115.35 14.0781 115.35 15.8748C115.35 17.6716 116.507 18.578 117.759 18.578C119.012 18.578 120.168 17.6716 120.168 15.8748ZM124.753 6.64453V20.6244H127.317V6.64453H124.753Z" fill="white"/>
<path d="M7.87674 17.3716C6.00842 8.07676 7.7777 1.97852 7.7777 1.97852C7.7777 1.97852 7.30393 5.69003 11.0272 11.6756C10.979 19.0933 12.4324 22.963 12.4324 22.963L12.7295 22.7431L12.4324 23.0033C12.4324 23.0033 10.2242 21.1904 7.87674 17.3716Z" fill="url(#paint0_radial_357_1972)"/>
<path d="M16.6776 16.0556C17.5716 16.962 18.4041 17.5868 19.0063 17.8845C19.0036 17.8845 18.9983 17.8818 18.9956 17.8791C18.9956 17.8791 19.6728 18.1232 19.7906 17.9596C20.615 17.0827 20.8157 15.4468 20.267 12.3709C17.1246 10.5661 16.7285 7.75293 16.7285 7.75293C16.7285 7.75293 16.1637 11.6602 16.6776 16.0556Z" fill="url(#paint1_radial_357_1972)"/>
<path d="M7.77766 1.97876C7.77766 1.97876 5.19199 10.8848 9.56835 23.5747C9.6888 23.9394 9.56835 24.347 9.24983 24.5911L4.63525 27.844C4.19895 28.1685 3.5619 27.9647 3.36115 27.4364C2.12988 24.0601 -1.25075 12.8773 2.17003 0.635214C2.32796 0.14714 2.84455 -0.137123 3.32368 0.0666879L7.77766 1.97876Z" fill="url(#paint2_radial_357_1972)"/>
<path d="M16.6076 19.8716L12.432 22.9636C12.432 22.9636 10.205 17.0263 11.3587 5.76035C11.439 5.10869 12.1135 4.7842 12.6703 5.10869L16.7281 7.75288C16.7281 7.75288 15.9331 13.2424 17.0868 18.5307C17.2072 19.059 17.0065 19.5873 16.6103 19.8716H16.6076Z" fill="url(#paint3_radial_357_1972)"/>
<path d="M24.3249 12.9975L20.4678 10.4365C20.2296 10.2729 19.8709 10.5169 19.9512 10.8012C20.8666 14.9096 20.7462 16.9424 19.7933 17.9587C19.6728 18.1223 18.9983 17.8783 18.9983 17.8783C19.6353 18.2028 19.7933 18.0419 19.7933 18.0419C20.4303 17.5538 22.8152 15.8053 24.3275 14.7487C24.9244 14.3009 24.9244 13.4078 24.3275 13.0002L24.3249 12.9975Z" fill="url(#paint4_radial_357_1972)"/>
<defs>
<radialGradient id="paint0_radial_357_1972" cx="0" cy="0" r="1" gradientUnits="userSpaceOnUse" gradientTransform="translate(14.721 20.4958) scale(15.7763 15.8061)">
<stop stop-color="#4F81E7"/>
<stop offset="1" stop-color="#2A0894"/>
</radialGradient>
<radialGradient id="paint1_radial_357_1972" cx="0" cy="0" r="1" gradientUnits="userSpaceOnUse" gradientTransform="translate(22.8875 16.5999) scale(10.7227 10.743)">
<stop stop-color="#4F81E7"/>
<stop offset="1" stop-color="#2A0894"/>
</radialGradient>
<radialGradient id="paint2_radial_357_1972" cx="0" cy="0" r="1" gradientUnits="userSpaceOnUse" gradientTransform="translate(0.317777 -1.98751) scale(20.3026 20.3409)">
<stop stop-color="#FFDAD4"/>
<stop offset="0.92" stop-color="#FF4975"/>
</radialGradient>
<radialGradient id="paint3_radial_357_1972" cx="0" cy="0" r="1" gradientUnits="userSpaceOnUse" gradientTransform="translate(9.15579 2.36797) scale(18.5975 18.6326)">
<stop stop-color="#FFFFDC"/>
<stop offset="1" stop-color="#0BD88F"/>
</radialGradient>
<radialGradient id="paint4_radial_357_1972" cx="0" cy="0" r="1" gradientUnits="userSpaceOnUse" gradientTransform="translate(20.5427 11.9248) scale(10.3105 10.33)">
<stop stop-color="#4BDFFF"/>
<stop offset="1" stop-color="#4F08E7"/>
</radialGradient>
</defs>
</svg>
